# MagicaVoxel @ Ephtracy

# group
o 

# material
mtllib grenade.mtl
usemtl palette

# normals
vn -1 0 0
vn 1 0 0
vn 0 0 1
vn 0 0 -1
vn 0 -1 0
vn 0 1 0

# texcoords
vt 0.970703 0.5
vt 0.974609 0.5
vt 0.978516 0.5

# verts
v -0.1 0 0
v -0.1 0 -0.1
v -0.1 0.1 0.1
v -0.1 0.1 0
v -0.1 0.1 -0.1
v -0.1 0.1 -0.2
v -0.1 0.2 0.1
v -0.1 0.2 0
v -0.1 0.2 -0.1
v -0.1 0.2 -0.2
v -0.1 0.3 0.1
v -0.1 0.3 0
v -0.1 0.3 -0.1
v -0.1 0.3 -0.2
v -0.1 0.4 0.1
v -0.1 0.4 0
v -0.1 0.4 -0.1
v -0.1 0.4 -0.2
v -0.1 0.5 0
v -0.1 0.5 -0.1
v 0 0 0.1
v 0 0 0
v 0 0 -0.1
v 0 0 -0.2
v 0 0.1 0.1
v 0 0.1 0
v 0 0.1 -0.1
v 0 0.1 -0.2
v 0 0.2 0.1
v 0 0.2 0
v 0 0.2 -0.1
v 0 0.2 -0.2
v 0 0.3 0.1
v 0 0.3 0
v 0 0.3 -0.1
v 0 0.3 -0.2
v 0 0.4 0.1
v 0 0.4 0
v 0 0.4 -0.1
v 0 0.4 -0.2
v 0 0.5 0.1
v 0 0.5 0
v 0 0.5 -0.1
v 0 0.5 -0.2
v 0 0.7 0
v 0 0.7 -0.1
v 0.2 0.5 0
v 0.2 0.5 -0.1
v 0.2 0.6 0
v 0.2 0.6 -0.1
v 0.1 0 0.1
v 0.1 0 0
v 0.1 0 -0.1
v 0.1 0 -0.2
v 0.1 0.1 0.1
v 0.1 0.1 0
v 0.1 0.1 -0.1
v 0.1 0.1 -0.2
v 0.1 0.2 0.1
v 0.1 0.2 0
v 0.1 0.2 -0.1
v 0.1 0.2 -0.2
v 0.1 0.3 0.1
v 0.1 0.3 0
v 0.1 0.3 -0.1
v 0.1 0.3 -0.2
v 0.1 0.4 0.1
v 0.1 0.4 0
v 0.1 0.4 -0.1
v 0.1 0.4 -0.2
v 0.1 0.5 0.1
v 0.1 0.5 0
v 0.1 0.5 -0.1
v 0.1 0.5 -0.2
v 0.1 0.6 0
v 0.1 0.6 -0.1
v 0.2 0 0
v 0.2 0 -0.1
v 0.2 0.1 0.1
v 0.2 0.1 0
v 0.2 0.1 -0.1
v 0.2 0.1 -0.2
v 0.2 0.2 0.1
v 0.2 0.2 0
v 0.2 0.2 -0.1
v 0.2 0.2 -0.2
v 0.2 0.3 0.1
v 0.2 0.3 0
v 0.2 0.3 -0.1
v 0.2 0.3 -0.2
v 0.2 0.4 0.1
v 0.2 0.4 0
v 0.2 0.4 -0.1
v 0.2 0.4 -0.2
v 0.2 0.6 0
v 0.2 0.6 -0.1
v 0.2 0.7 0
v 0.2 0.7 -0.1
v 0.3 0.3 0
v 0.3 0.3 -0.1
v 0.3 0.6 0
v 0.3 0.6 -0.1
v -0.1 0.1 0.1
v -0.1 0.2 0.1
v -0.1 0.3 0.1
v -0.1 0.4 0.1
v 0 0 0.1
v 0 0.1 0.1
v 0 0.2 0.1
v 0 0.3 0.1
v 0 0.4 0.1
v 0 0.5 0.1
v 0.1 0 0.1
v 0.1 0.1 0.1
v 0.1 0.2 0.1
v 0.1 0.3 0.1
v 0.1 0.4 0.1
v 0.1 0.5 0.1
v 0.2 0.1 0.1
v 0.2 0.2 0.1
v 0.2 0.3 0.1
v 0.2 0.4 0.1
v -0.1 0 0
v -0.1 0.1 0
v -0.1 0.2 0
v -0.1 0.3 0
v -0.1 0.4 0
v -0.1 0.5 0
v 0 0 0
v 0 0.1 0
v 0 0.2 0
v 0 0.3 0
v 0 0.4 0
v 0 0.5 0
v 0 0.7 0
v 0.1 0 0
v 0.1 0.1 0
v 0.1 0.2 0
v 0.1 0.3 0
v 0.1 0.4 0
v 0.1 0.5 0
v 0.1 0.6 0
v 0.2 0 0
v 0.2 0.1 0
v 0.2 0.2 0
v 0.2 0.3 0
v 0.2 0.4 0
v 0.2 0.5 0
v 0.2 0.6 0
v 0.2 0.7 0
v 0.3 0.3 0
v 0.3 0.6 0
v -0.1 0 -0.1
v -0.1 0.1 -0.1
v -0.1 0.2 -0.1
v -0.1 0.3 -0.1
v -0.1 0.4 -0.1
v -0.1 0.5 -0.1
v 0 0 -0.1
v 0 0.1 -0.1
v 0 0.2 -0.1
v 0 0.3 -0.1
v 0 0.4 -0.1
v 0 0.5 -0.1
v 0 0.7 -0.1
v 0.1 0 -0.1
v 0.1 0.1 -0.1
v 0.1 0.2 -0.1
v 0.1 0.3 -0.1
v 0.1 0.4 -0.1
v 0.1 0.5 -0.1
v 0.1 0.6 -0.1
v 0.2 0 -0.1
v 0.2 0.1 -0.1
v 0.2 0.2 -0.1
v 0.2 0.3 -0.1
v 0.2 0.4 -0.1
v 0.2 0.5 -0.1
v 0.2 0.6 -0.1
v 0.2 0.7 -0.1
v 0.3 0.3 -0.1
v 0.3 0.6 -0.1
v -0.1 0.1 -0.2
v -0.1 0.2 -0.2
v -0.1 0.3 -0.2
v -0.1 0.4 -0.2
v 0 0 -0.2
v 0 0.1 -0.2
v 0 0.2 -0.2
v 0 0.3 -0.2
v 0 0.4 -0.2
v 0 0.5 -0.2
v 0.1 0 -0.2
v 0.1 0.1 -0.2
v 0.1 0.2 -0.2
v 0.1 0.3 -0.2
v 0.1 0.4 -0.2
v 0.1 0.5 -0.2
v 0.2 0.1 -0.2
v 0.2 0.2 -0.2
v 0.2 0.3 -0.2
v 0.2 0.4 -0.2
v 0 0 0.1
v 0.1 0 0.1
v -0.1 0 0
v 0 0 0
v 0.1 0 0
v 0.2 0 0
v -0.1 0 -0.1
v 0 0 -0.1
v 0.1 0 -0.1
v 0.2 0 -0.1
v 0 0 -0.2
v 0.1 0 -0.2
v -0.1 0.1 0.1
v 0 0.1 0.1
v 0.1 0.1 0.1
v 0.2 0.1 0.1
v -0.1 0.1 0
v 0 0.1 0
v 0.1 0.1 0
v 0.2 0.1 0
v -0.1 0.1 -0.1
v 0 0.1 -0.1
v 0.1 0.1 -0.1
v 0.2 0.1 -0.1
v -0.1 0.1 -0.2
v 0 0.1 -0.2
v 0.1 0.1 -0.2
v 0.2 0.1 -0.2
v -0.1 0.3 0.1
v 0 0.3 0.1
v 0.1 0.3 0.1
v 0.2 0.3 0.1
v -0.1 0.3 0
v 0 0.3 0
v 0.1 0.3 0
v 0.2 0.3 0
v 0.3 0.3 0
v -0.1 0.3 -0.1
v 0 0.3 -0.1
v 0.1 0.3 -0.1
v 0.2 0.3 -0.1
v 0.3 0.3 -0.1
v -0.1 0.3 -0.2
v 0 0.3 -0.2
v 0.1 0.3 -0.2
v 0.2 0.3 -0.2
v 0.1 0.6 0
v 0.2 0.6 0
v 0.1 0.6 -0.1
v 0.2 0.6 -0.1
v -0.1 0.2 0.1
v 0 0.2 0.1
v 0.1 0.2 0.1
v 0.2 0.2 0.1
v -0.1 0.2 0
v 0 0.2 0
v 0.1 0.2 0
v 0.2 0.2 0
v -0.1 0.2 -0.1
v 0 0.2 -0.1
v 0.1 0.2 -0.1
v 0.2 0.2 -0.1
v -0.1 0.2 -0.2
v 0 0.2 -0.2
v 0.1 0.2 -0.2
v 0.2 0.2 -0.2
v -0.1 0.4 0.1
v 0 0.4 0.1
v 0.1 0.4 0.1
v 0.2 0.4 0.1
v -0.1 0.4 0
v 0 0.4 0
v 0.1 0.4 0
v 0.2 0.4 0
v -0.1 0.4 -0.1
v 0 0.4 -0.1
v 0.1 0.4 -0.1
v 0.2 0.4 -0.1
v -0.1 0.4 -0.2
v 0 0.4 -0.2
v 0.1 0.4 -0.2
v 0.2 0.4 -0.2
v 0 0.5 0.1
v 0.1 0.5 0.1
v -0.1 0.5 0
v 0 0.5 0
v 0.1 0.5 0
v 0.2 0.5 0
v -0.1 0.5 -0.1
v 0 0.5 -0.1
v 0.1 0.5 -0.1
v 0.2 0.5 -0.1
v 0 0.5 -0.2
v 0.1 0.5 -0.2
v 0.2 0.6 0
v 0.3 0.6 0
v 0.2 0.6 -0.1
v 0.3 0.6 -0.1
v 0 0.7 0
v 0.2 0.7 0
v 0 0.7 -0.1
v 0.2 0.7 -0.1

# faces
f 4/1/1 2/1/1 1/1/1
f 5/1/1 2/1/1 4/1/1
f 7/2/1 4/2/1 3/2/1
f 7/2/1 6/2/1 5/2/1
f 7/2/1 5/2/1 4/2/1
f 8/2/1 6/2/1 7/2/1
f 9/2/1 6/2/1 8/2/1
f 10/2/1 6/2/1 9/2/1
f 12/1/1 9/1/1 8/1/1
f 13/1/1 9/1/1 12/1/1
f 15/2/1 12/2/1 11/2/1
f 15/2/1 14/2/1 13/2/1
f 15/2/1 13/2/1 12/2/1
f 16/2/1 14/2/1 15/2/1
f 17/2/1 14/2/1 16/2/1
f 18/2/1 14/2/1 17/2/1
f 19/1/1 17/1/1 16/1/1
f 20/1/1 17/1/1 19/1/1
f 25/1/1 22/1/1 21/1/1
f 26/1/1 22/1/1 25/1/1
f 27/1/1 24/1/1 23/1/1
f 28/1/1 24/1/1 27/1/1
f 33/1/1 30/1/1 29/1/1
f 34/1/1 30/1/1 33/1/1
f 35/1/1 32/1/1 31/1/1
f 36/1/1 32/1/1 35/1/1
f 41/1/1 38/1/1 37/1/1
f 42/1/1 38/1/1 41/1/1
f 43/1/1 40/1/1 39/1/1
f 44/1/1 40/1/1 43/1/1
f 45/3/1 43/3/1 42/3/1
f 46/3/1 43/3/1 45/3/1
f 49/3/1 48/3/1 47/3/1
f 50/3/1 48/3/1 49/3/1
f 51/1/2 52/1/2 55/1/2
f 55/1/2 52/1/2 56/1/2
f 53/1/2 54/1/2 57/1/2
f 57/1/2 54/1/2 58/1/2
f 59/1/2 60/1/2 63/1/2
f 63/1/2 60/1/2 64/1/2
f 61/1/2 62/1/2 65/1/2
f 65/1/2 62/1/2 66/1/2
f 67/1/2 68/1/2 71/1/2
f 71/1/2 68/1/2 72/1/2
f 69/1/2 70/1/2 73/1/2
f 73/1/2 70/1/2 74/1/2
f 72/3/2 73/3/2 75/3/2
f 75/3/2 73/3/2 76/3/2
f 77/1/2 78/1/2 80/1/2
f 80/1/2 78/1/2 81/1/2
f 79/2/2 80/2/2 83/2/2
f 80/1/2 81/1/2 84/1/2
f 83/2/2 80/2/2 84/2/2
f 81/2/2 82/2/2 85/2/2
f 84/1/2 81/1/2 85/1/2
f 85/2/2 82/2/2 86/2/2
f 84/1/2 85/1/2 88/1/2
f 88/1/2 85/1/2 89/1/2
f 87/2/2 88/2/2 91/2/2
f 91/2/2 88/2/2 92/2/2
f 89/2/2 90/2/2 93/2/2
f 93/2/2 90/2/2 94/2/2
f 95/3/2 96/3/2 97/3/2
f 97/3/2 96/3/2 98/3/2
f 99/3/2 100/3/2 101/3/2
f 101/3/2 100/3/2 102/3/2
f 108/2/3 104/2/3 103/2/3
f 109/2/3 104/2/3 108/2/3
f 110/2/3 106/2/3 105/2/3
f 111/2/3 106/2/3 110/2/3
f 113/1/3 108/1/3 107/1/3
f 114/2/3 109/2/3 108/2/3
f 114/1/3 108/1/3 113/1/3
f 115/1/3 110/1/3 109/1/3
f 115/2/3 109/2/3 114/2/3
f 116/2/3 111/2/3 110/2/3
f 116/1/3 110/1/3 115/1/3
f 117/1/3 112/1/3 111/1/3
f 117/2/3 111/2/3 116/2/3
f 118/1/3 112/1/3 117/1/3
f 119/2/3 115/2/3 114/2/3
f 120/2/3 115/2/3 119/2/3
f 121/2/3 117/2/3 116/2/3
f 122/2/3 117/2/3 121/2/3
f 129/1/3 124/1/3 123/1/3
f 130/1/3 124/1/3 129/1/3
f 131/1/3 126/1/3 125/1/3
f 132/1/3 126/1/3 131/1/3
f 133/1/3 128/1/3 127/1/3
f 134/1/3 128/1/3 133/1/3
f 141/3/3 135/3/3 134/3/3
f 142/3/3 135/3/3 141/3/3
f 143/1/3 137/1/3 136/1/3
f 144/1/3 137/1/3 143/1/3
f 145/1/3 139/1/3 138/1/3
f 146/1/3 139/1/3 145/1/3
f 147/1/3 141/1/3 140/1/3
f 148/1/3 141/1/3 147/1/3
f 149/3/3 135/3/3 142/3/3
f 150/3/3 135/3/3 149/3/3
f 151/3/3 148/3/3 147/3/3
f 151/3/3 149/3/3 148/3/3
f 151/3/3 147/3/3 146/3/3
f 152/3/3 149/3/3 151/3/3
f 153/1/4 154/1/4 159/1/4
f 159/1/4 154/1/4 160/1/4
f 155/1/4 156/1/4 161/1/4
f 161/1/4 156/1/4 162/1/4
f 157/1/4 158/1/4 163/1/4
f 163/1/4 158/1/4 164/1/4
f 164/3/4 165/3/4 171/3/4
f 171/3/4 165/3/4 172/3/4
f 166/1/4 167/1/4 173/1/4
f 173/1/4 167/1/4 174/1/4
f 168/1/4 169/1/4 175/1/4
f 175/1/4 169/1/4 176/1/4
f 170/1/4 171/1/4 177/1/4
f 177/1/4 171/1/4 178/1/4
f 172/3/4 165/3/4 179/3/4
f 179/3/4 165/3/4 180/3/4
f 177/3/4 178/3/4 181/3/4
f 178/3/4 179/3/4 181/3/4
f 176/3/4 177/3/4 181/3/4
f 181/3/4 179/3/4 182/3/4
f 183/2/4 184/2/4 188/2/4
f 188/2/4 184/2/4 189/2/4
f 185/2/4 186/2/4 190/2/4
f 190/2/4 186/2/4 191/2/4
f 187/1/4 188/1/4 193/1/4
f 188/2/4 189/2/4 194/2/4
f 193/1/4 188/1/4 194/1/4
f 189/1/4 190/1/4 195/1/4
f 194/2/4 189/2/4 195/2/4
f 190/2/4 191/2/4 196/2/4
f 195/1/4 190/1/4 196/1/4
f 191/1/4 192/1/4 197/1/4
f 196/2/4 191/2/4 197/2/4
f 197/1/4 192/1/4 198/1/4
f 194/2/4 195/2/4 199/2/4
f 199/2/4 195/2/4 200/2/4
f 196/2/4 197/2/4 201/2/4
f 201/2/4 197/2/4 202/2/4
f 206/1/5 204/1/5 203/1/5
f 207/1/5 204/1/5 206/1/5
f 209/1/5 206/1/5 205/1/5
f 209/1/5 208/1/5 207/1/5
f 209/1/5 207/1/5 206/1/5
f 210/1/5 208/1/5 209/1/5
f 211/1/5 208/1/5 210/1/5
f 212/1/5 208/1/5 211/1/5
f 213/1/5 211/1/5 210/1/5
f 214/1/5 211/1/5 213/1/5
f 219/2/5 216/2/5 215/2/5
f 220/2/5 216/2/5 219/2/5
f 221/2/5 218/2/5 217/2/5
f 222/2/5 218/2/5 221/2/5
f 227/2/5 224/2/5 223/2/5
f 228/2/5 224/2/5 227/2/5
f 229/2/5 226/2/5 225/2/5
f 230/2/5 226/2/5 229/2/5
f 235/2/5 232/2/5 231/2/5
f 236/2/5 232/2/5 235/2/5
f 237/2/5 234/2/5 233/2/5
f 238/2/5 234/2/5 237/2/5
f 243/3/5 239/3/5 238/3/5
f 244/3/5 239/3/5 243/3/5
f 245/2/5 241/2/5 240/2/5
f 246/2/5 241/2/5 245/2/5
f 247/2/5 243/2/5 242/2/5
f 248/2/5 243/2/5 247/2/5
f 251/3/5 250/3/5 249/3/5
f 252/3/5 250/3/5 251/3/5
f 253/2/6 254/2/6 257/2/6
f 257/2/6 254/2/6 258/2/6
f 255/2/6 256/2/6 259/2/6
f 259/2/6 256/2/6 260/2/6
f 261/2/6 262/2/6 265/2/6
f 265/2/6 262/2/6 266/2/6
f 263/2/6 264/2/6 267/2/6
f 267/2/6 264/2/6 268/2/6
f 269/2/6 270/2/6 273/2/6
f 273/2/6 270/2/6 274/2/6
f 271/2/6 272/2/6 275/2/6
f 275/2/6 272/2/6 276/2/6
f 277/2/6 278/2/6 281/2/6
f 281/2/6 278/2/6 282/2/6
f 279/2/6 280/2/6 283/2/6
f 283/2/6 280/2/6 284/2/6
f 285/1/6 286/1/6 288/1/6
f 288/1/6 286/1/6 289/1/6
f 287/1/6 288/1/6 291/1/6
f 291/1/6 288/1/6 292/1/6
f 289/1/6 290/1/6 293/1/6
f 293/1/6 290/1/6 294/1/6
f 292/1/6 293/1/6 295/1/6
f 295/1/6 293/1/6 296/1/6
f 297/3/6 298/3/6 299/3/6
f 299/3/6 298/3/6 300/3/6
f 301/3/6 302/3/6 303/3/6
f 303/3/6 302/3/6 304/3/6
