# MagicaVoxel @ Ephtracy

# group
o 

# material
mtllib untitled.mtl
usemtl palette

# normals
vn -1 0 0
vn 1 0 0
vn 0 0 1
vn 0 0 -1
vn 0 -1 0
vn 0 1 0

# texcoords
vt 0.537109 0.5
vt 0.978516 0.5
vt 0.982422 0.5

# verts
v -0.2 0.6 -0.6
v -0.2 0.6 -0.8
v -0.2 0.7 -0.5
v -0.2 0.7 -0.6
v -0.2 0.9 -0.4
v -0.2 0.9 -0.5
v -0.2 0.9 -0.7
v -0.2 0.9 -0.8
v -0.2 1 0.7
v -0.2 1 -0.2
v -0.2 1 -0.4
v -0.2 1 -0.6
v -0.2 1 -0.7
v -0.2 1.1 0.7
v -0.2 1.1 0.4
v -0.2 1.1 0.3
v -0.2 1.1 0
v -0.2 1.1 -0.2
v -0.2 1.1 -0.3
v -0.2 1.1 -0.4
v -0.2 1.1 -0.6
v -0.2 1.2 0.4
v -0.2 1.2 0.3
v -0.2 1.2 0
v -0.2 1.2 -0.3
v -0.2 1.2 -0.4
v -0.1 0.6 -0.8
v -0.1 0.6 -0.9
v -0.1 0.8 0.3
v -0.1 0.8 -0.5
v -0.1 0.9 0.9
v -0.1 0.9 0.3
v -0.1 0.9 -0.4
v -0.1 0.9 -0.5
v -0.1 0.9 -0.7
v -0.1 0.9 -0.8
v -0.1 0.9 -0.9
v -0.1 1 1
v -0.1 1 0.9
v -0.1 1 0.7
v -0.1 1 -0.2
v -0.1 1 -0.4
v -0.1 1 -0.6
v -0.1 1 -0.7
v -0.1 1 -0.8
v -0.1 1.1 1
v -0.1 1.1 0.7
v -0.1 1.1 0.4
v -0.1 1.1 0.3
v -0.1 1.1 0
v -0.1 1.1 -0.4
v -0.1 1.1 -0.5
v -0.1 1.1 -0.6
v -0.1 1.1 -0.7
v -0.1 1.2 0.7
v -0.1 1.2 0.4
v -0.1 1.2 0.3
v -0.1 1.2 0
v -0.1 1.2 -0.4
v -0.1 1.2 -0.5
v 0 0.6 -0.8
v 0 0.6 -0.9
v 0 0.8 0.3
v 0 0.8 -0.5
v 0 0.9 0.9
v 0 0.9 0.3
v 0 0.9 -0.4
v 0 0.9 -0.5
v 0 0.9 -0.7
v 0 0.9 -0.8
v 0 0.9 -0.9
v 0 1 1
v 0 1 0.9
v 0 1 0.7
v 0 1 -0.2
v 0 1 -0.4
v 0 1 -0.6
v 0 1 -0.7
v 0 1 -0.8
v 0 1.1 1
v 0 1.1 0.7
v 0 1.1 0.4
v 0 1.1 0.3
v 0 1.1 0
v 0 1.1 -0.4
v 0 1.1 -0.5
v 0 1.1 -0.6
v 0 1.1 -0.7
v 0 1.2 0.7
v 0 1.2 0.4
v 0 1.2 0.3
v 0 1.2 0
v 0 1.2 -0.4
v 0 1.2 -0.5
v 0.1 0.6 -0.6
v 0.1 0.6 -0.8
v 0.1 0.7 -0.5
v 0.1 0.7 -0.6
v 0.1 0.9 -0.4
v 0.1 0.9 -0.5
v 0.1 0.9 -0.7
v 0.1 0.9 -0.8
v 0.1 1 0.7
v 0.1 1 -0.2
v 0.1 1 -0.4
v 0.1 1 -0.6
v 0.1 1 -0.7
v 0.1 1.1 0.7
v 0.1 1.1 0.4
v 0.1 1.1 0.3
v 0.1 1.1 0
v 0.1 1.1 -0.2
v 0.1 1.1 -0.3
v 0.1 1.1 -0.4
v 0.1 1.1 -0.6
v 0.1 1.2 0.4
v 0.1 1.2 0.3
v 0.1 1.2 0
v 0.1 1.2 -0.3
v 0.1 1.2 -0.4
v -0.1 1 1
v -0.1 1.1 1
v 0 1 1
v 0 1.1 1
v -0.1 0.9 0.9
v -0.1 1 0.9
v 0 0.9 0.9
v 0 1 0.9
v -0.2 1 0.7
v -0.2 1.1 0.7
v -0.1 1 0.7
v -0.1 1.1 0.7
v -0.1 1.2 0.7
v 0 1 0.7
v 0 1.1 0.7
v 0 1.2 0.7
v 0.1 1 0.7
v 0.1 1.1 0.7
v -0.2 1.1 0.4
v -0.2 1.2 0.4
v -0.1 1.1 0.4
v -0.1 1.2 0.4
v 0 1.1 0.4
v 0 1.2 0.4
v 0.1 1.1 0.4
v 0.1 1.2 0.4
v -0.1 0.8 0.3
v -0.1 0.9 0.3
v 0 0.8 0.3
v 0 0.9 0.3
v -0.2 1.1 0
v -0.2 1.2 0
v -0.1 1.1 0
v -0.1 1.2 0
v 0 1.1 0
v 0 1.2 0
v 0.1 1.1 0
v 0.1 1.2 0
v -0.2 0.9 -0.4
v -0.2 1 -0.4
v -0.1 0.9 -0.4
v -0.1 1 -0.4
v 0 0.9 -0.4
v 0 1 -0.4
v 0.1 0.9 -0.4
v 0.1 1 -0.4
v -0.2 0.7 -0.5
v -0.2 0.9 -0.5
v -0.1 0.8 -0.5
v -0.1 0.9 -0.5
v 0 0.8 -0.5
v 0 0.9 -0.5
v 0.1 0.7 -0.5
v 0.1 0.9 -0.5
v -0.2 0.6 -0.6
v -0.2 0.7 -0.6
v 0.1 0.6 -0.6
v 0.1 0.7 -0.6
v -0.2 1.1 0.3
v -0.2 1.2 0.3
v -0.1 1.1 0.3
v -0.1 1.2 0.3
v 0 1.1 0.3
v 0 1.2 0.3
v 0.1 1.1 0.3
v 0.1 1.2 0.3
v -0.2 1.1 -0.4
v -0.2 1.2 -0.4
v -0.1 1.1 -0.4
v -0.1 1.2 -0.4
v 0 1.1 -0.4
v 0 1.2 -0.4
v 0.1 1.1 -0.4
v 0.1 1.2 -0.4
v -0.1 1.1 -0.5
v -0.1 1.2 -0.5
v 0 1.1 -0.5
v 0 1.2 -0.5
v -0.2 1 -0.6
v -0.2 1.1 -0.6
v -0.1 1 -0.6
v -0.1 1.1 -0.6
v 0 1 -0.6
v 0 1.1 -0.6
v 0.1 1 -0.6
v 0.1 1.1 -0.6
v -0.2 0.9 -0.7
v -0.2 1 -0.7
v -0.1 0.9 -0.7
v -0.1 1 -0.7
v -0.1 1.1 -0.7
v 0 0.9 -0.7
v 0 1 -0.7
v 0 1.1 -0.7
v 0.1 0.9 -0.7
v 0.1 1 -0.7
v -0.2 0.6 -0.8
v -0.2 0.9 -0.8
v -0.1 0.6 -0.8
v -0.1 0.9 -0.8
v -0.1 1 -0.8
v 0 0.6 -0.8
v 0 0.9 -0.8
v 0 1 -0.8
v 0.1 0.6 -0.8
v 0.1 0.9 -0.8
v -0.1 0.6 -0.9
v -0.1 0.9 -0.9
v 0 0.6 -0.9
v 0 0.9 -0.9
v -0.2 0.6 -0.6
v 0.1 0.6 -0.6
v -0.2 0.6 -0.8
v -0.1 0.6 -0.8
v 0 0.6 -0.8
v 0.1 0.6 -0.8
v -0.1 0.6 -0.9
v 0 0.6 -0.9
v -0.2 0.7 -0.5
v 0.1 0.7 -0.5
v -0.2 0.7 -0.6
v 0.1 0.7 -0.6
v -0.1 0.8 0.3
v 0 0.8 0.3
v -0.1 0.8 -0.5
v 0 0.8 -0.5
v -0.1 0.9 0.9
v 0 0.9 0.9
v -0.1 0.9 0.3
v 0 0.9 0.3
v -0.2 0.9 -0.4
v -0.1 0.9 -0.4
v 0 0.9 -0.4
v 0.1 0.9 -0.4
v -0.2 0.9 -0.5
v -0.1 0.9 -0.5
v 0 0.9 -0.5
v 0.1 0.9 -0.5
v -0.1 1 1
v 0 1 1
v -0.1 1 0.9
v 0 1 0.9
v -0.2 1 0.7
v -0.1 1 0.7
v 0 1 0.7
v 0.1 1 0.7
v -0.2 1 -0.2
v -0.1 1 -0.2
v 0 1 -0.2
v 0.1 1 -0.2
v -0.2 1 -0.4
v -0.1 1 -0.4
v 0 1 -0.4
v 0.1 1 -0.4
v -0.2 0.9 -0.7
v -0.1 0.9 -0.7
v 0 0.9 -0.7
v 0.1 0.9 -0.7
v -0.2 0.9 -0.8
v -0.1 0.9 -0.8
v 0 0.9 -0.8
v 0.1 0.9 -0.8
v -0.1 0.9 -0.9
v 0 0.9 -0.9
v -0.2 1 -0.6
v -0.1 1 -0.6
v 0 1 -0.6
v 0.1 1 -0.6
v -0.2 1 -0.7
v -0.1 1 -0.7
v 0 1 -0.7
v 0.1 1 -0.7
v -0.1 1 -0.8
v 0 1 -0.8
v -0.1 1.1 1
v 0 1.1 1
v -0.2 1.1 0.7
v -0.1 1.1 0.7
v 0 1.1 0.7
v 0.1 1.1 0.7
v -0.2 1.1 0.4
v -0.1 1.1 0.4
v 0 1.1 0.4
v 0.1 1.1 0.4
v -0.2 1.1 0.3
v -0.1 1.1 0.3
v 0 1.1 0.3
v 0.1 1.1 0.3
v -0.2 1.1 0
v -0.1 1.1 0
v 0 1.1 0
v 0.1 1.1 0
v -0.2 1.1 -0.4
v -0.1 1.1 -0.4
v 0 1.1 -0.4
v 0.1 1.1 -0.4
v -0.1 1.1 -0.5
v 0 1.1 -0.5
v -0.2 1.1 -0.6
v -0.1 1.1 -0.6
v 0 1.1 -0.6
v 0.1 1.1 -0.6
v -0.1 1.1 -0.7
v 0 1.1 -0.7
v -0.1 1.2 0.7
v 0 1.2 0.7
v -0.2 1.2 0.4
v -0.1 1.2 0.4
v 0 1.2 0.4
v 0.1 1.2 0.4
v -0.2 1.2 0.3
v -0.1 1.2 0.3
v 0 1.2 0.3
v 0.1 1.2 0.3
v -0.2 1.2 0
v -0.1 1.2 0
v 0 1.2 0
v 0.1 1.2 0
v -0.1 1.2 -0.2
v 0 1.2 -0.2
v -0.2 1.2 -0.3
v -0.1 1.2 -0.3
v 0 1.2 -0.3
v 0.1 1.2 -0.3
v -0.2 1.2 -0.4
v -0.1 1.2 -0.4
v 0 1.2 -0.4
v 0.1 1.2 -0.4
v -0.1 1.2 -0.5
v 0 1.2 -0.5

# faces
f 4/1/1 2/1/1 1/1/1
f 6/1/1 4/1/1 3/1/1
f 7/1/1 2/1/1 4/1/1
f 7/1/1 4/1/1 6/1/1
f 8/1/1 2/1/1 7/1/1
f 11/1/1 6/1/1 5/1/1
f 11/1/1 7/1/1 6/1/1
f 12/1/1 7/1/1 11/1/1
f 13/1/1 7/1/1 12/1/1
f 14/2/1 10/2/1 9/2/1
f 15/2/1 10/2/1 14/2/1
f 16/2/1 10/2/1 15/2/1
f 17/2/1 10/2/1 16/2/1
f 18/1/1 11/1/1 10/1/1
f 18/2/1 10/2/1 17/2/1
f 18/1/1 12/1/1 11/1/1
f 19/1/1 12/1/1 18/1/1
f 20/1/1 12/1/1 19/1/1
f 21/1/1 12/1/1 20/1/1
f 22/2/1 16/2/1 15/2/1
f 23/2/1 16/2/1 22/2/1
f 24/2/1 19/2/1 18/2/1
f 24/2/1 18/2/1 17/2/1
f 25/1/1 20/1/1 19/1/1
f 25/2/1 19/2/1 24/2/1
f 26/1/1 20/1/1 25/1/1
f 32/3/1 30/3/1 29/3/1
f 33/3/1 30/3/1 32/3/1
f 34/3/1 30/3/1 33/3/1
f 36/1/1 28/1/1 27/1/1
f 37/1/1 28/1/1 36/1/1
f 39/3/1 32/3/1 31/3/1
f 39/3/1 33/3/1 32/3/1
f 40/3/1 33/3/1 39/3/1
f 41/3/1 33/3/1 40/3/1
f 42/3/1 33/3/1 41/3/1
f 44/1/1 36/1/1 35/1/1
f 45/1/1 36/1/1 44/1/1
f 46/3/1 39/3/1 38/3/1
f 46/3/1 40/3/1 39/3/1
f 47/3/1 40/3/1 46/3/1
f 53/1/1 44/1/1 43/1/1
f 54/1/1 44/1/1 53/1/1
f 55/2/1 48/2/1 47/2/1
f 56/2/1 48/2/1 55/2/1
f 57/2/1 50/2/1 49/2/1
f 58/2/1 50/2/1 57/2/1
f 59/1/1 52/1/1 51/1/1
f 60/1/1 52/1/1 59/1/1
f 63/3/2 64/3/2 66/3/2
f 66/3/2 64/3/2 67/3/2
f 67/3/2 64/3/2 68/3/2
f 61/1/2 62/1/2 70/1/2
f 70/1/2 62/1/2 71/1/2
f 65/3/2 66/3/2 73/3/2
f 66/3/2 67/3/2 73/3/2
f 73/3/2 67/3/2 74/3/2
f 74/3/2 67/3/2 75/3/2
f 75/3/2 67/3/2 76/3/2
f 69/1/2 70/1/2 78/1/2
f 78/1/2 70/1/2 79/1/2
f 72/3/2 73/3/2 80/3/2
f 73/3/2 74/3/2 80/3/2
f 80/3/2 74/3/2 81/3/2
f 77/1/2 78/1/2 87/1/2
f 87/1/2 78/1/2 88/1/2
f 81/2/2 82/2/2 89/2/2
f 89/2/2 82/2/2 90/2/2
f 83/2/2 84/2/2 91/2/2
f 91/2/2 84/2/2 92/2/2
f 85/1/2 86/1/2 93/1/2
f 93/1/2 86/1/2 94/1/2
f 95/1/2 96/1/2 98/1/2
f 97/1/2 98/1/2 100/1/2
f 98/1/2 96/1/2 101/1/2
f 100/1/2 98/1/2 101/1/2
f 101/1/2 96/1/2 102/1/2
f 99/1/2 100/1/2 105/1/2
f 100/1/2 101/1/2 105/1/2
f 105/1/2 101/1/2 106/1/2
f 106/1/2 101/1/2 107/1/2
f 103/2/2 104/2/2 108/2/2
f 108/2/2 104/2/2 109/2/2
f 109/2/2 104/2/2 110/2/2
f 110/2/2 104/2/2 111/2/2
f 104/1/2 105/1/2 112/1/2
f 111/2/2 104/2/2 112/2/2
f 105/1/2 106/1/2 112/1/2
f 112/1/2 106/1/2 113/1/2
f 113/1/2 106/1/2 114/1/2
f 114/1/2 106/1/2 115/1/2
f 109/2/2 110/2/2 116/2/2
f 116/2/2 110/2/2 117/2/2
f 112/2/2 113/2/2 118/2/2
f 111/2/2 112/2/2 118/2/2
f 113/1/2 114/1/2 119/1/2
f 118/2/2 113/2/2 119/2/2
f 119/1/2 114/1/2 120/1/2
f 123/3/3 122/3/3 121/3/3
f 124/3/3 122/3/3 123/3/3
f 127/3/3 126/3/3 125/3/3
f 128/3/3 126/3/3 127/3/3
f 131/2/3 130/2/3 129/2/3
f 132/2/3 130/2/3 131/2/3
f 135/2/3 133/2/3 132/2/3
f 136/2/3 133/2/3 135/2/3
f 137/2/3 135/2/3 134/2/3
f 138/2/3 135/2/3 137/2/3
f 141/2/3 140/2/3 139/2/3
f 142/2/3 140/2/3 141/2/3
f 145/2/3 144/2/3 143/2/3
f 146/2/3 144/2/3 145/2/3
f 149/3/3 148/3/3 147/3/3
f 150/3/3 148/3/3 149/3/3
f 153/2/3 152/2/3 151/2/3
f 154/2/3 152/2/3 153/2/3
f 157/2/3 156/2/3 155/2/3
f 158/2/3 156/2/3 157/2/3
f 161/1/3 160/1/3 159/1/3
f 162/1/3 160/1/3 161/1/3
f 165/1/3 164/1/3 163/1/3
f 166/1/3 164/1/3 165/1/3
f 169/1/3 168/1/3 167/1/3
f 170/1/3 168/1/3 169/1/3
f 171/1/3 169/1/3 167/1/3
f 173/1/3 171/1/3 167/1/3
f 173/1/3 172/1/3 171/1/3
f 174/1/3 172/1/3 173/1/3
f 177/1/3 176/1/3 175/1/3
f 178/1/3 176/1/3 177/1/3
f 179/2/4 180/2/4 181/2/4
f 181/2/4 180/2/4 182/2/4
f 183/2/4 184/2/4 185/2/4
f 185/2/4 184/2/4 186/2/4
f 187/1/4 188/1/4 189/1/4
f 189/1/4 188/1/4 190/1/4
f 191/1/4 192/1/4 193/1/4
f 193/1/4 192/1/4 194/1/4
f 195/1/4 196/1/4 197/1/4
f 197/1/4 196/1/4 198/1/4
f 199/1/4 200/1/4 201/1/4
f 201/1/4 200/1/4 202/1/4
f 203/1/4 204/1/4 205/1/4
f 205/1/4 204/1/4 206/1/4
f 207/1/4 208/1/4 209/1/4
f 209/1/4 208/1/4 210/1/4
f 210/1/4 211/1/4 213/1/4
f 213/1/4 211/1/4 214/1/4
f 212/1/4 213/1/4 215/1/4
f 215/1/4 213/1/4 216/1/4
f 217/1/4 218/1/4 219/1/4
f 219/1/4 218/1/4 220/1/4
f 220/1/4 221/1/4 223/1/4
f 223/1/4 221/1/4 224/1/4
f 222/1/4 223/1/4 225/1/4
f 225/1/4 223/1/4 226/1/4
f 227/1/4 228/1/4 229/1/4
f 229/1/4 228/1/4 230/1/4
f 233/1/5 232/1/5 231/1/5
f 234/1/5 232/1/5 233/1/5
f 235/1/5 232/1/5 234/1/5
f 236/1/5 232/1/5 235/1/5
f 237/1/5 235/1/5 234/1/5
f 238/1/5 235/1/5 237/1/5
f 241/1/5 240/1/5 239/1/5
f 242/1/5 240/1/5 241/1/5
f 245/3/5 244/3/5 243/3/5
f 246/3/5 244/3/5 245/3/5
f 249/3/5 248/3/5 247/3/5
f 250/3/5 248/3/5 249/3/5
f 255/1/5 252/1/5 251/1/5
f 256/1/5 252/1/5 255/1/5
f 257/1/5 254/1/5 253/1/5
f 258/1/5 254/1/5 257/1/5
f 261/3/5 260/3/5 259/3/5
f 262/3/5 260/3/5 261/3/5
f 267/2/5 264/2/5 263/2/5
f 268/2/5 264/2/5 267/2/5
f 269/2/5 266/2/5 265/2/5
f 270/2/5 266/2/5 269/2/5
f 271/1/5 268/1/5 267/1/5
f 272/1/5 268/1/5 271/1/5
f 273/1/5 270/1/5 269/1/5
f 274/1/5 270/1/5 273/1/5
f 275/1/6 276/1/6 279/1/6
f 279/1/6 276/1/6 280/1/6
f 277/1/6 278/1/6 281/1/6
f 281/1/6 278/1/6 282/1/6
f 280/1/6 281/1/6 283/1/6
f 283/1/6 281/1/6 284/1/6
f 285/1/6 286/1/6 289/1/6
f 289/1/6 286/1/6 290/1/6
f 287/1/6 288/1/6 291/1/6
f 291/1/6 288/1/6 292/1/6
f 290/1/6 291/1/6 293/1/6
f 293/1/6 291/1/6 294/1/6
f 295/3/6 296/3/6 298/3/6
f 298/3/6 296/3/6 299/3/6
f 297/2/6 298/2/6 301/2/6
f 301/2/6 298/2/6 302/2/6
f 299/2/6 300/2/6 303/2/6
f 303/2/6 300/2/6 304/2/6
f 305/2/6 306/2/6 309/2/6
f 309/2/6 306/2/6 310/2/6
f 307/2/6 308/2/6 311/2/6
f 311/2/6 308/2/6 312/2/6
f 313/1/6 314/1/6 317/1/6
f 315/1/6 316/1/6 318/1/6
f 313/1/6 317/1/6 319/1/6
f 317/1/6 318/1/6 319/1/6
f 319/1/6 318/1/6 320/1/6
f 318/1/6 316/1/6 321/1/6
f 320/1/6 318/1/6 321/1/6
f 321/1/6 316/1/6 322/1/6
f 320/1/6 321/1/6 323/1/6
f 323/1/6 321/1/6 324/1/6
f 325/2/6 326/2/6 328/2/6
f 328/2/6 326/2/6 329/2/6
f 327/2/6 328/2/6 331/2/6
f 329/2/6 330/2/6 331/2/6
f 328/2/6 329/2/6 331/2/6
f 331/2/6 330/2/6 332/2/6
f 332/2/6 330/2/6 333/2/6
f 333/2/6 330/2/6 334/2/6
f 332/2/6 333/2/6 336/2/6
f 336/2/6 333/2/6 337/2/6
f 335/2/6 336/2/6 339/2/6
f 337/2/6 338/2/6 339/2/6
f 336/2/6 337/2/6 339/2/6
f 339/2/6 338/2/6 340/2/6
f 335/2/6 339/2/6 341/2/6
f 339/1/6 340/1/6 342/1/6
f 341/2/6 339/2/6 342/2/6
f 340/2/6 338/2/6 343/2/6
f 342/1/6 340/1/6 343/1/6
f 343/2/6 338/2/6 344/2/6
f 341/1/6 342/1/6 345/1/6
f 342/1/6 343/1/6 345/1/6
f 343/1/6 344/1/6 345/1/6
f 345/1/6 344/1/6 346/1/6
f 346/1/6 344/1/6 347/1/6
f 347/1/6 344/1/6 348/1/6
f 346/1/6 347/1/6 349/1/6
f 349/1/6 347/1/6 350/1/6
