# MagicaVoxel @ Ephtracy

# group
o 

# material
mtllib turret_spawn_box.mtl
usemtl palette

# normals
vn -1 0 0
vn 1 0 0
vn 0 0 1
vn 0 0 -1
vn 0 -1 0
vn 0 1 0

# texcoords
vt 0.970703 0.5
vt 0.974609 0.5
vt 0.978516 0.5
vt 0.982422 0.5
vt 0.986328 0.5

# verts
v -0.3 0 0.1
v -0.3 0 -0.6
v -0.3 0.1 0
v -0.3 0.1 -0.5
v -0.3 0.3 0.1
v -0.3 0.3 0
v -0.3 0.3 -0.5
v -0.3 0.3 -0.6
v 0 0.1 0.2
v 0 0.1 0.1
v 0 0.2 0.2
v 0 0.2 0.1
v 0.1 0.1 0.4
v 0.1 0.1 0.2
v 0.1 0.2 0.4
v 0.1 0.2 0.2
v 0.2 0.1 0.4
v 0.2 0.1 0.2
v 0.2 0.1 0.1
v 0.2 0.2 0.4
v 0.2 0.2 0.2
v 0.2 0.2 0.1
v 0.3 0 0.1
v 0.3 0 -0.6
v 0.3 0.1 0
v 0.3 0.1 -0.5
v 0.3 0.3 0.1
v 0.3 0.3 0
v 0.3 0.3 -0.5
v 0.3 0.3 -0.6
v 0.1 0.1 0.4
v 0.1 0.2 0.4
v 0.2 0.1 0.4
v 0.2 0.2 0.4
v 0 0.1 0.2
v 0 0.2 0.2
v 0.1 0.1 0.2
v 0.1 0.2 0.2
v -0.3 0 0.1
v -0.3 0.3 0.1
v -0.2 0 0.1
v -0.2 0.2 0.1
v 0 0.1 0.1
v 0 0.2 0.1
v 0.2 0 0.1
v 0.2 0.1 0.1
v 0.2 0.2 0.1
v 0.3 0 0.1
v 0.3 0.3 0.1
v -0.3 0 -0.6
v -0.3 0.3 -0.6
v -0.2 0 -0.6
v -0.2 0.2 -0.6
v 0.2 0 -0.6
v 0.2 0.2 -0.6
v 0.3 0 -0.6
v 0.3 0.3 -0.6
v -0.3 0 0.1
v -0.2 0 0.1
v 0.2 0 0.1
v 0.3 0 0.1
v -0.3 0 -0.6
v -0.2 0 -0.6
v 0.2 0 -0.6
v 0.3 0 -0.6
v 0.1 0.1 0.4
v 0.2 0.1 0.4
v 0 0.1 0.2
v 0.1 0.1 0.2
v 0.2 0.1 0.2
v 0 0.1 0.1
v 0.2 0.1 0.1
v 0.1 0.2 0.4
v 0.2 0.2 0.4
v 0 0.2 0.2
v 0.1 0.2 0.2
v 0.2 0.2 0.2
v 0 0.2 0.1
v 0.2 0.2 0.1
v -0.3 0.3 0.1
v 0.3 0.3 0.1
v -0.3 0.3 0
v -0.2 0.3 0
v 0.2 0.3 0
v 0.3 0.3 0
v -0.2 0.3 -0.3
v 0.2 0.3 -0.3
v -0.2 0.3 -0.4
v -0.1 0.3 -0.4
v 0 0.3 -0.4
v 0.1 0.3 -0.4
v 0.2 0.3 -0.4
v -0.3 0.3 -0.5
v -0.2 0.3 -0.5
v -0.1 0.3 -0.5
v 0 0.3 -0.5
v 0.1 0.3 -0.5
v 0.2 0.3 -0.5
v 0.3 0.3 -0.5
v -0.3 0.3 -0.6
v 0.3 0.3 -0.6

# faces
f 3/4/1 2/4/1 1/4/1
f 4/4/1 2/4/1 3/4/1
f 5/4/1 3/4/1 1/4/1
f 6/1/1 4/1/1 3/1/1
f 6/4/1 3/4/1 5/4/1
f 7/4/1 2/4/1 4/4/1
f 7/1/1 4/1/1 6/1/1
f 8/4/1 2/4/1 7/4/1
f 11/2/1 10/2/1 9/2/1
f 12/2/1 10/2/1 11/2/1
f 15/3/1 14/3/1 13/3/1
f 16/3/1 14/3/1 15/3/1
f 17/3/2 18/3/2 20/3/2
f 18/2/2 19/2/2 21/2/2
f 20/3/2 18/3/2 21/3/2
f 21/2/2 19/2/2 22/2/2
f 23/4/2 24/4/2 25/4/2
f 25/4/2 24/4/2 26/4/2
f 23/4/2 25/4/2 27/4/2
f 25/1/2 26/1/2 28/1/2
f 27/4/2 25/4/2 28/4/2
f 26/4/2 24/4/2 29/4/2
f 28/1/2 26/1/2 29/1/2
f 29/4/2 24/4/2 30/4/2
f 33/3/3 32/3/3 31/3/3
f 34/3/3 32/3/3 33/3/3
f 37/2/3 36/2/3 35/2/3
f 38/2/3 36/2/3 37/2/3
f 41/4/3 40/4/3 39/4/3
f 42/4/3 40/4/3 41/4/3
f 43/1/3 42/1/3 41/1/3
f 44/4/3 40/4/3 42/4/3
f 44/1/3 42/1/3 43/1/3
f 45/1/3 43/1/3 41/1/3
f 46/1/3 43/1/3 45/1/3
f 47/4/3 40/4/3 44/4/3
f 48/4/3 46/4/3 45/4/3
f 48/4/3 47/4/3 46/4/3
f 49/4/3 40/4/3 47/4/3
f 49/4/3 47/4/3 48/4/3
f 50/4/4 51/4/4 52/4/4
f 52/4/4 51/4/4 53/4/4
f 52/1/4 53/1/4 54/1/4
f 53/4/4 51/4/4 55/4/4
f 54/1/4 53/1/4 55/1/4
f 54/4/4 55/4/4 56/4/4
f 55/4/4 51/4/4 57/4/4
f 56/4/4 55/4/4 57/4/4
f 62/4/5 59/4/5 58/4/5
f 63/1/5 60/1/5 59/1/5
f 63/4/5 59/4/5 62/4/5
f 64/4/5 61/4/5 60/4/5
f 64/1/5 60/1/5 63/1/5
f 65/4/5 61/4/5 64/4/5
f 69/3/5 67/3/5 66/3/5
f 70/3/5 67/3/5 69/3/5
f 71/2/5 69/2/5 68/2/5
f 71/2/5 70/2/5 69/2/5
f 72/2/5 70/2/5 71/2/5
f 73/3/6 74/3/6 76/3/6
f 76/3/6 74/3/6 77/3/6
f 75/2/6 76/2/6 78/2/6
f 76/2/6 77/2/6 78/2/6
f 78/2/6 77/2/6 79/2/6
f 80/4/6 81/4/6 82/4/6
f 82/4/6 81/4/6 83/4/6
f 83/4/6 81/4/6 84/4/6
f 84/4/6 81/4/6 85/4/6
f 82/1/6 83/1/6 86/1/6
f 83/5/6 84/5/6 86/5/6
f 84/1/6 85/1/6 87/1/6
f 86/5/6 84/5/6 87/5/6
f 82/1/6 86/1/6 88/1/6
f 86/4/6 87/4/6 88/4/6
f 88/4/6 87/4/6 89/4/6
f 89/4/6 87/4/6 90/4/6
f 90/4/6 87/4/6 91/4/6
f 87/1/6 85/1/6 92/1/6
f 91/4/6 87/4/6 92/4/6
f 82/1/6 88/1/6 93/1/6
f 88/3/6 89/3/6 94/3/6
f 93/1/6 88/1/6 94/1/6
f 89/2/6 90/2/6 95/2/6
f 94/3/6 89/3/6 95/3/6
f 90/3/6 91/3/6 96/3/6
f 95/2/6 90/2/6 96/2/6
f 91/2/6 92/2/6 97/2/6
f 96/3/6 91/3/6 97/3/6
f 92/1/6 85/1/6 98/1/6
f 97/2/6 92/2/6 98/2/6
f 98/1/6 85/1/6 99/1/6
f 94/4/6 95/4/6 100/4/6
f 96/4/6 97/4/6 100/4/6
f 98/4/6 99/4/6 100/4/6
f 97/4/6 98/4/6 100/4/6
f 95/4/6 96/4/6 100/4/6
f 93/4/6 94/4/6 100/4/6
f 100/4/6 99/4/6 101/4/6
