# MagicaVoxel @ Ephtracy

# group
o 

# material
mtllib turret_head.mtl
usemtl palette

# normals
vn -1 0 0
vn 1 0 0
vn 0 0 1
vn 0 0 -1
vn 0 -1 0
vn 0 1 0

# texcoords
vt 0.970703 0.5
vt 0.974609 0.5
vt 0.978516 0.5
vt 0.982422 0.5

# verts
v -0.5 0.6 0
v -0.5 0.6 -0.5
v -0.5 0.6 -0.6
v -0.5 0.7 -0.3
v -0.5 0.7 -0.5
v -0.5 0.7 -0.6
v -0.5 0.7 -0.7
v -0.5 0.9 -0.3
v -0.5 0.9 -0.5
v -0.5 0.9 -0.6
v -0.5 0.9 -0.7
v -0.5 1 0
v -0.5 1 -0.5
v -0.5 1 -0.6
v -0.4 0.5 0
v -0.4 0.5 -0.6
v -0.4 0.6 0
v -0.4 0.6 -0.5
v -0.4 0.6 -0.6
v -0.4 0.6 -0.7
v -0.4 0.7 -0.6
v -0.4 0.7 -0.7
v -0.4 0.7 -0.8
v -0.4 0.9 -0.6
v -0.4 0.9 -0.7
v -0.4 0.9 -0.8
v -0.4 1 0
v -0.4 1 -0.5
v -0.4 1 -0.6
v -0.4 1 -0.7
v -0.4 1.1 0
v -0.4 1.1 -0.6
v -0.3 0.5 -0.6
v -0.3 0.5 -0.7
v -0.3 0.6 -0.6
v -0.3 0.6 -0.7
v -0.3 0.6 -0.8
v -0.3 0.7 -0.7
v -0.3 0.7 -0.8
v -0.3 0.9 -0.7
v -0.3 0.9 -0.8
v -0.3 1 -0.6
v -0.3 1 -0.7
v -0.3 1 -0.8
v -0.3 1.1 -0.6
v -0.3 1.1 -0.7
v -0.2 0.7 0.1
v -0.2 0.7 0
v -0.2 0.9 0.1
v -0.2 0.9 0
v -0.1 0.6 0.1
v -0.1 0.6 0
v -0.1 0.7 0.4
v -0.1 0.7 0.3
v -0.1 0.7 0.1
v -0.1 0.7 0
v -0.1 0.9 0.4
v -0.1 0.9 0.3
v -0.1 0.9 0.1
v -0.1 0.9 0
v -0.1 1 0.1
v -0.1 1 0
v 0.1 0.6 0.1
v 0.1 0.6 0
v 0.1 0.7 0.4
v 0.1 0.7 0.3
v 0.1 0.7 0.1
v 0.1 0.7 0
v 0.1 0.9 0.4
v 0.1 0.9 0.3
v 0.1 0.9 0.1
v 0.1 0.9 0
v 0.1 1 0.1
v 0.1 1 0
v 0.2 0.7 0.1
v 0.2 0.7 0
v 0.2 0.9 0.1
v 0.2 0.9 0
v 0.3 0.5 -0.6
v 0.3 0.5 -0.7
v 0.3 0.6 -0.6
v 0.3 0.6 -0.7
v 0.3 0.6 -0.8
v 0.3 0.7 -0.7
v 0.3 0.7 -0.8
v 0.3 0.9 -0.7
v 0.3 0.9 -0.8
v 0.3 1 -0.6
v 0.3 1 -0.7
v 0.3 1 -0.8
v 0.3 1.1 -0.6
v 0.3 1.1 -0.7
v 0.4 0.5 0
v 0.4 0.5 -0.6
v 0.4 0.6 0
v 0.4 0.6 -0.5
v 0.4 0.6 -0.6
v 0.4 0.6 -0.7
v 0.4 0.7 -0.6
v 0.4 0.7 -0.7
v 0.4 0.7 -0.8
v 0.4 0.9 -0.6
v 0.4 0.9 -0.7
v 0.4 0.9 -0.8
v 0.4 1 0
v 0.4 1 -0.5
v 0.4 1 -0.6
v 0.4 1 -0.7
v 0.4 1.1 0
v 0.4 1.1 -0.6
v 0.5 0.6 0
v 0.5 0.6 -0.5
v 0.5 0.6 -0.6
v 0.5 0.7 -0.3
v 0.5 0.7 -0.5
v 0.5 0.7 -0.6
v 0.5 0.7 -0.7
v 0.5 0.9 -0.3
v 0.5 0.9 -0.5
v 0.5 0.9 -0.6
v 0.5 0.9 -0.7
v 0.5 1 0
v 0.5 1 -0.5
v 0.5 1 -0.6
v -0.1 0.7 0.4
v -0.1 0.9 0.4
v 0.1 0.7 0.4
v 0.1 0.9 0.4
v -0.2 0.7 0.1
v -0.2 0.9 0.1
v -0.1 0.6 0.1
v -0.1 0.7 0.1
v -0.1 0.9 0.1
v -0.1 1 0.1
v 0.1 0.6 0.1
v 0.1 0.7 0.1
v 0.1 0.9 0.1
v 0.1 1 0.1
v 0.2 0.7 0.1
v 0.2 0.9 0.1
v -0.5 0.6 0
v -0.5 1 0
v -0.4 0.5 0
v -0.4 0.6 0
v -0.4 1 0
v -0.4 1.1 0
v -0.2 0.7 0
v -0.2 0.9 0
v -0.1 0.6 0
v -0.1 0.7 0
v -0.1 0.9 0
v -0.1 1 0
v 0.1 0.6 0
v 0.1 0.7 0
v 0.1 0.9 0
v 0.1 1 0
v 0.2 0.7 0
v 0.2 0.9 0
v 0.4 0.5 0
v 0.4 0.6 0
v 0.4 1 0
v 0.4 1.1 0
v 0.5 0.6 0
v 0.5 1 0
v -0.5 0.6 -0.6
v -0.5 0.7 -0.6
v -0.5 0.9 -0.6
v -0.5 1 -0.6
v -0.4 0.5 -0.6
v -0.4 0.6 -0.6
v -0.4 0.7 -0.6
v -0.4 0.9 -0.6
v -0.4 1 -0.6
v -0.4 1.1 -0.6
v -0.3 0.5 -0.6
v -0.3 0.6 -0.6
v -0.3 1 -0.6
v -0.3 1.1 -0.6
v 0.3 0.5 -0.6
v 0.3 0.6 -0.6
v 0.3 1 -0.6
v 0.3 1.1 -0.6
v 0.4 0.5 -0.6
v 0.4 0.6 -0.6
v 0.4 0.7 -0.6
v 0.4 0.9 -0.6
v 0.4 1 -0.6
v 0.4 1.1 -0.6
v 0.5 0.6 -0.6
v 0.5 0.7 -0.6
v 0.5 0.9 -0.6
v 0.5 1 -0.6
v -0.5 0.7 -0.7
v -0.5 0.9 -0.7
v -0.4 0.6 -0.7
v -0.4 0.7 -0.7
v -0.4 0.9 -0.7
v -0.4 1 -0.7
v -0.3 0.5 -0.7
v -0.3 0.6 -0.7
v -0.3 0.7 -0.7
v -0.3 0.9 -0.7
v -0.3 1 -0.7
v -0.3 1.1 -0.7
v 0.3 0.5 -0.7
v 0.3 0.6 -0.7
v 0.3 0.7 -0.7
v 0.3 0.9 -0.7
v 0.3 1 -0.7
v 0.3 1.1 -0.7
v 0.4 0.6 -0.7
v 0.4 0.7 -0.7
v 0.4 0.9 -0.7
v 0.4 1 -0.7
v 0.5 0.7 -0.7
v 0.5 0.9 -0.7
v -0.4 0.7 -0.8
v -0.4 0.9 -0.8
v -0.3 0.6 -0.8
v -0.3 0.7 -0.8
v -0.3 0.9 -0.8
v -0.3 1 -0.8
v 0.3 0.6 -0.8
v 0.3 0.7 -0.8
v 0.3 0.9 -0.8
v 0.3 1 -0.8
v 0.4 0.7 -0.8
v 0.4 0.9 -0.8
v -0.4 0.5 0
v 0.4 0.5 0
v -0.3 0.5 -0.1
v 0.3 0.5 -0.1
v -0.4 0.5 -0.6
v -0.3 0.5 -0.6
v 0.3 0.5 -0.6
v 0.4 0.5 -0.6
v -0.3 0.5 -0.7
v 0.3 0.5 -0.7
v -0.1 0.6 0.1
v 0.1 0.6 0.1
v -0.5 0.6 0
v -0.4 0.6 0
v -0.1 0.6 0
v 0.1 0.6 0
v 0.4 0.6 0
v 0.5 0.6 0
v -0.5 0.6 -0.5
v -0.4 0.6 -0.5
v 0.4 0.6 -0.5
v 0.5 0.6 -0.5
v -0.5 0.6 -0.6
v -0.4 0.6 -0.6
v -0.3 0.6 -0.6
v 0.3 0.6 -0.6
v 0.4 0.6 -0.6
v 0.5 0.6 -0.6
v -0.4 0.6 -0.7
v -0.3 0.6 -0.7
v 0.3 0.6 -0.7
v 0.4 0.6 -0.7
v -0.3 0.6 -0.8
v 0.3 0.6 -0.8
v -0.1 0.7 0.4
v 0.1 0.7 0.4
v -0.1 0.7 0.3
v 0.1 0.7 0.3
v -0.2 0.7 0.1
v -0.1 0.7 0.1
v 0.1 0.7 0.1
v 0.2 0.7 0.1
v -0.2 0.7 0
v -0.1 0.7 0
v 0.1 0.7 0
v 0.2 0.7 0
v -0.5 0.7 -0.6
v -0.4 0.7 -0.6
v 0.4 0.7 -0.6
v 0.5 0.7 -0.6
v -0.5 0.7 -0.7
v -0.4 0.7 -0.7
v -0.3 0.7 -0.7
v 0.3 0.7 -0.7
v 0.4 0.7 -0.7
v 0.5 0.7 -0.7
v -0.4 0.7 -0.8
v -0.3 0.7 -0.8
v 0.3 0.7 -0.8
v 0.4 0.7 -0.8
v -0.1 0.9 0.4
v 0.1 0.9 0.4
v -0.1 0.9 0.3
v 0.1 0.9 0.3
v -0.2 0.9 0.1
v -0.1 0.9 0.1
v 0.1 0.9 0.1
v 0.2 0.9 0.1
v -0.2 0.9 0
v -0.1 0.9 0
v 0.1 0.9 0
v 0.2 0.9 0
v -0.5 0.9 -0.6
v -0.4 0.9 -0.6
v 0.4 0.9 -0.6
v 0.5 0.9 -0.6
v -0.5 0.9 -0.7
v -0.4 0.9 -0.7
v -0.3 0.9 -0.7
v 0.3 0.9 -0.7
v 0.4 0.9 -0.7
v 0.5 0.9 -0.7
v -0.4 0.9 -0.8
v -0.3 0.9 -0.8
v 0.3 0.9 -0.8
v 0.4 0.9 -0.8
v -0.1 1 0.1
v 0.1 1 0.1
v -0.5 1 0
v -0.4 1 0
v -0.1 1 0
v 0.1 1 0
v 0.4 1 0
v 0.5 1 0
v -0.5 1 -0.5
v -0.4 1 -0.5
v 0.4 1 -0.5
v 0.5 1 -0.5
v -0.5 1 -0.6
v -0.4 1 -0.6
v -0.3 1 -0.6
v 0.3 1 -0.6
v 0.4 1 -0.6
v 0.5 1 -0.6
v -0.4 1 -0.7
v -0.3 1 -0.7
v 0.3 1 -0.7
v 0.4 1 -0.7
v -0.3 1 -0.8
v 0.3 1 -0.8
v -0.4 1.1 0
v 0.4 1.1 0
v -0.1 1.1 -0.2
v 0.1 1.1 -0.2
v -0.2 1.1 -0.3
v -0.1 1.1 -0.3
v 0.1 1.1 -0.3
v 0.2 1.1 -0.3
v -0.3 1.1 -0.5
v -0.2 1.1 -0.5
v 0.2 1.1 -0.5
v 0.3 1.1 -0.5
v -0.4 1.1 -0.6
v -0.3 1.1 -0.6
v 0.3 1.1 -0.6
v 0.4 1.1 -0.6
v -0.3 1.1 -0.7
v 0.3 1.1 -0.7

# faces
f 4/4/1 2/4/1 1/4/1
f 5/1/1 3/1/1 2/1/1
f 5/4/1 2/4/1 4/4/1
f 6/1/1 3/1/1 5/1/1
f 8/4/1 4/4/1 1/4/1
f 8/1/1 7/1/1 6/1/1
f 8/1/1 6/1/1 5/1/1
f 8/1/1 5/1/1 4/1/1
f 9/1/1 7/1/1 8/1/1
f 10/1/1 7/1/1 9/1/1
f 11/1/1 7/1/1 10/1/1
f 12/4/1 8/4/1 1/4/1
f 12/4/1 9/4/1 8/4/1
f 13/1/1 10/1/1 9/1/1
f 13/4/1 9/4/1 12/4/1
f 14/1/1 10/1/1 13/1/1
f 17/4/1 16/4/1 15/4/1
f 18/4/1 16/4/1 17/4/1
f 19/4/1 16/4/1 18/4/1
f 21/4/1 20/4/1 19/4/1
f 22/4/1 20/4/1 21/4/1
f 25/4/1 23/4/1 22/4/1
f 26/4/1 23/4/1 25/4/1
f 29/4/1 25/4/1 24/4/1
f 30/4/1 25/4/1 29/4/1
f 31/4/1 28/4/1 27/4/1
f 31/4/1 29/4/1 28/4/1
f 32/4/1 29/4/1 31/4/1
f 35/1/1 34/1/1 33/1/1
f 36/1/1 34/1/1 35/1/1
f 38/1/1 37/1/1 36/1/1
f 39/1/1 37/1/1 38/1/1
f 43/1/1 41/1/1 40/1/1
f 44/1/1 41/1/1 43/1/1
f 45/1/1 43/1/1 42/1/1
f 46/1/1 43/1/1 45/1/1
f 49/3/1 48/3/1 47/3/1
f 50/3/1 48/3/1 49/3/1
f 55/3/1 52/3/1 51/3/1
f 56/3/1 52/3/1 55/3/1
f 57/3/1 54/3/1 53/3/1
f 58/2/1 55/2/1 54/2/1
f 58/3/1 54/3/1 57/3/1
f 59/2/1 55/2/1 58/2/1
f 61/3/1 60/3/1 59/3/1
f 62/3/1 60/3/1 61/3/1
f 63/3/2 64/3/2 67/3/2
f 67/3/2 64/3/2 68/3/2
f 65/3/2 66/3/2 69/3/2
f 66/2/2 67/2/2 70/2/2
f 69/3/2 66/3/2 70/3/2
f 70/2/2 67/2/2 71/2/2
f 71/3/2 72/3/2 73/3/2
f 73/3/2 72/3/2 74/3/2
f 75/3/2 76/3/2 77/3/2
f 77/3/2 76/3/2 78/3/2
f 79/1/2 80/1/2 81/1/2
f 81/1/2 80/1/2 82/1/2
f 82/1/2 83/1/2 84/1/2
f 84/1/2 83/1/2 85/1/2
f 86/1/2 87/1/2 89/1/2
f 89/1/2 87/1/2 90/1/2
f 88/1/2 89/1/2 91/1/2
f 91/1/2 89/1/2 92/1/2
f 93/4/2 94/4/2 95/4/2
f 95/4/2 94/4/2 96/4/2
f 96/4/2 94/4/2 97/4/2
f 97/4/2 98/4/2 99/4/2
f 99/4/2 98/4/2 100/4/2
f 100/4/2 101/4/2 103/4/2
f 103/4/2 101/4/2 104/4/2
f 102/4/2 103/4/2 107/4/2
f 107/4/2 103/4/2 108/4/2
f 105/4/2 106/4/2 109/4/2
f 106/4/2 107/4/2 109/4/2
f 109/4/2 107/4/2 110/4/2
f 111/4/2 112/4/2 114/4/2
f 112/1/2 113/1/2 115/1/2
f 114/4/2 112/4/2 115/4/2
f 115/1/2 113/1/2 116/1/2
f 111/4/2 114/4/2 118/4/2
f 116/1/2 117/1/2 118/1/2
f 115/1/2 116/1/2 118/1/2
f 114/1/2 115/1/2 118/1/2
f 118/1/2 117/1/2 119/1/2
f 119/1/2 117/1/2 120/1/2
f 120/1/2 117/1/2 121/1/2
f 111/4/2 118/4/2 122/4/2
f 118/4/2 119/4/2 122/4/2
f 119/1/2 120/1/2 123/1/2
f 122/4/2 119/4/2 123/4/2
f 123/1/2 120/1/2 124/1/2
f 127/3/3 126/3/3 125/3/3
f 128/3/3 126/3/3 127/3/3
f 132/3/3 130/3/3 129/3/3
f 133/3/3 130/3/3 132/3/3
f 135/3/3 132/3/3 131/3/3
f 136/3/3 132/3/3 135/3/3
f 137/3/3 134/3/3 133/3/3
f 138/3/3 134/3/3 137/3/3
f 139/3/3 137/3/3 136/3/3
f 140/3/3 137/3/3 139/3/3
f 144/4/3 142/4/3 141/4/3
f 145/4/3 142/4/3 144/4/3
f 147/4/3 144/4/3 143/4/3
f 147/4/3 146/4/3 145/4/3
f 147/4/3 145/4/3 144/4/3
f 148/4/3 146/4/3 147/4/3
f 149/4/3 147/4/3 143/4/3
f 150/4/3 147/4/3 149/4/3
f 151/4/3 146/4/3 148/4/3
f 152/4/3 146/4/3 151/4/3
f 153/4/3 149/4/3 143/4/3
f 156/4/3 146/4/3 152/4/3
f 157/4/3 154/4/3 153/4/3
f 158/4/3 156/4/3 155/4/3
f 159/4/3 157/4/3 153/4/3
f 159/4/3 158/4/3 157/4/3
f 159/4/3 153/4/3 143/4/3
f 160/4/3 158/4/3 159/4/3
f 161/4/3 156/4/3 158/4/3
f 161/4/3 158/4/3 160/4/3
f 161/4/3 146/4/3 156/4/3
f 162/4/3 146/4/3 161/4/3
f 163/4/3 161/4/3 160/4/3
f 164/4/3 161/4/3 163/4/3
f 165/1/4 166/1/4 170/1/4
f 170/1/4 166/1/4 171/1/4
f 167/1/4 168/1/4 172/1/4
f 172/1/4 168/1/4 173/1/4
f 169/4/4 170/4/4 175/4/4
f 175/4/4 170/4/4 176/4/4
f 173/4/4 174/4/4 177/4/4
f 177/4/4 174/4/4 178/4/4
f 179/4/4 180/4/4 183/4/4
f 183/4/4 180/4/4 184/4/4
f 181/4/4 182/4/4 187/4/4
f 187/4/4 182/4/4 188/4/4
f 184/1/4 185/1/4 189/1/4
f 189/1/4 185/1/4 190/1/4
f 186/1/4 187/1/4 191/1/4
f 191/1/4 187/1/4 192/1/4
f 193/1/4 194/1/4 196/1/4
f 196/1/4 194/1/4 197/1/4
f 195/4/4 196/4/4 200/4/4
f 200/4/4 196/4/4 201/4/4
f 197/4/4 198/4/4 202/4/4
f 202/4/4 198/4/4 203/4/4
f 199/1/4 200/1/4 205/1/4
f 205/1/4 200/1/4 206/1/4
f 203/1/4 204/1/4 209/1/4
f 209/1/4 204/1/4 210/1/4
f 206/4/4 207/4/4 211/4/4
f 211/4/4 207/4/4 212/4/4
f 208/4/4 209/4/4 213/4/4
f 213/4/4 209/4/4 214/4/4
f 212/1/4 213/1/4 215/1/4
f 215/1/4 213/1/4 216/1/4
f 217/4/4 218/4/4 220/4/4
f 220/4/4 218/4/4 221/4/4
f 219/1/4 220/1/4 223/1/4
f 221/1/4 222/1/4 223/1/4
f 220/1/4 221/1/4 223/1/4
f 223/1/4 222/1/4 224/1/4
f 224/1/4 222/1/4 225/1/4
f 225/1/4 222/1/4 226/1/4
f 224/4/4 225/4/4 227/4/4
f 227/4/4 225/4/4 228/4/4
f 231/4/5 230/4/5 229/4/5
f 232/4/5 230/4/5 231/4/5
f 233/4/5 231/4/5 229/4/5
f 234/1/5 232/1/5 231/1/5
f 234/4/5 231/4/5 233/4/5
f 235/4/5 230/4/5 232/4/5
f 235/1/5 232/1/5 234/1/5
f 236/4/5 230/4/5 235/4/5
f 237/1/5 235/1/5 234/1/5
f 238/1/5 235/1/5 237/1/5
f 243/3/5 240/3/5 239/3/5
f 244/3/5 240/3/5 243/3/5
f 247/4/5 242/4/5 241/4/5
f 248/4/5 242/4/5 247/4/5
f 249/4/5 246/4/5 245/4/5
f 250/4/5 246/4/5 249/4/5
f 251/1/5 248/1/5 247/1/5
f 252/1/5 248/1/5 251/1/5
f 255/1/5 250/1/5 249/1/5
f 256/1/5 250/1/5 255/1/5
f 257/4/5 253/4/5 252/4/5
f 258/4/5 253/4/5 257/4/5
f 259/4/5 255/4/5 254/4/5
f 260/4/5 255/4/5 259/4/5
f 261/1/5 259/1/5 258/1/5
f 262/1/5 259/1/5 261/1/5
f 265/3/5 264/3/5 263/3/5
f 266/3/5 264/3/5 265/3/5
f 268/2/5 266/2/5 265/2/5
f 269/2/5 266/2/5 268/2/5
f 271/3/5 268/3/5 267/3/5
f 272/3/5 268/3/5 271/3/5
f 273/3/5 270/3/5 269/3/5
f 274/3/5 270/3/5 273/3/5
f 279/1/5 276/1/5 275/1/5
f 280/1/5 276/1/5 279/1/5
f 283/1/5 278/1/5 277/1/5
f 284/1/5 278/1/5 283/1/5
f 285/4/5 281/4/5 280/4/5
f 286/4/5 281/4/5 285/4/5
f 287/4/5 283/4/5 282/4/5
f 288/4/5 283/4/5 287/4/5
f 289/3/6 290/3/6 291/3/6
f 291/3/6 290/3/6 292/3/6
f 291/2/6 292/2/6 294/2/6
f 294/2/6 292/2/6 295/2/6
f 293/3/6 294/3/6 297/3/6
f 297/3/6 294/3/6 298/3/6
f 295/3/6 296/3/6 299/3/6
f 299/3/6 296/3/6 300/3/6
f 301/1/6 302/1/6 305/1/6
f 305/1/6 302/1/6 306/1/6
f 303/1/6 304/1/6 309/1/6
f 309/1/6 304/1/6 310/1/6
f 306/4/6 307/4/6 311/4/6
f 311/4/6 307/4/6 312/4/6
f 308/4/6 309/4/6 313/4/6
f 313/4/6 309/4/6 314/4/6
f 315/3/6 316/3/6 319/3/6
f 319/3/6 316/3/6 320/3/6
f 317/4/6 318/4/6 323/4/6
f 323/4/6 318/4/6 324/4/6
f 321/4/6 322/4/6 325/4/6
f 325/4/6 322/4/6 326/4/6
f 323/1/6 324/1/6 327/1/6
f 327/1/6 324/1/6 328/1/6
f 325/1/6 326/1/6 331/1/6
f 331/1/6 326/1/6 332/1/6
f 328/4/6 329/4/6 333/4/6
f 333/4/6 329/4/6 334/4/6
f 330/4/6 331/4/6 335/4/6
f 335/4/6 331/4/6 336/4/6
f 334/1/6 335/1/6 337/1/6
f 337/1/6 335/1/6 338/1/6
f 339/4/6 340/4/6 341/4/6
f 341/4/6 340/4/6 342/4/6
f 339/4/6 341/4/6 343/4/6
f 341/1/6 342/1/6 344/1/6
f 343/4/6 341/4/6 344/4/6
f 342/4/6 340/4/6 345/4/6
f 344/1/6 342/1/6 345/1/6
f 345/4/6 340/4/6 346/4/6
f 339/4/6 343/4/6 347/4/6
f 343/1/6 344/1/6 348/1/6
f 347/4/6 343/4/6 348/4/6
f 344/1/6 345/1/6 348/1/6
f 345/1/6 346/1/6 348/1/6
f 346/4/6 340/4/6 349/4/6
f 348/1/6 346/1/6 349/1/6
f 349/4/6 340/4/6 350/4/6
f 339/4/6 347/4/6 351/4/6
f 347/1/6 348/1/6 352/1/6
f 351/4/6 347/4/6 352/4/6
f 348/1/6 349/1/6 352/1/6
f 349/1/6 350/1/6 352/1/6
f 350/4/6 340/4/6 353/4/6
f 352/1/6 350/1/6 353/1/6
f 353/4/6 340/4/6 354/4/6
f 352/1/6 353/1/6 355/1/6
f 355/1/6 353/1/6 356/1/6
