# MagicaVoxel @ Ephtracy

# group
o 

# material
mtllib untitled.mtl
usemtl palette

# normals
vn -1 0 0
vn 1 0 0
vn 0 0 1
vn 0 0 -1
vn 0 -1 0
vn 0 1 0

# texcoords
vt 0.982422 0.5
vt 0.986328 0.5

# verts
v -0.2 1.2 0.2
v -0.2 1.2 0.1
v -0.2 1.2 -0.3
v -0.2 1.2 -0.4
v -0.2 1.3 0.1
v -0.2 1.3 0
v -0.2 1.3 -0.2
v -0.2 1.3 -0.3
v -0.2 1.3 -0.4
v -0.2 1.4 0.2
v -0.2 1.4 0.1
v -0.2 1.4 -0.1
v -0.2 1.4 -0.2
v -0.2 1.4 -0.8
v -0.2 1.4 -0.9
v -0.2 1.5 0.3
v -0.2 1.5 0.1
v -0.2 1.5 0
v -0.2 1.5 -0.1
v -0.2 1.5 -0.2
v -0.2 1.5 -0.3
v -0.2 1.5 -0.5
v -0.2 1.5 -0.8
v -0.2 1.6 0.3
v -0.2 1.6 0.1
v -0.2 1.6 -0.2
v -0.2 1.6 -0.5
v -0.2 1.6 -0.9
v -0.1 1.1 0.3
v -0.1 1.1 0.1
v -0.1 1.2 0.2
v -0.1 1.2 0.1
v -0.1 1.2 0
v -0.1 1.2 -0.2
v -0.1 1.2 -0.3
v -0.1 1.3 0.3
v -0.1 1.3 0.2
v -0.1 1.3 0.1
v -0.1 1.3 0
v -0.1 1.3 -0.2
v -0.1 1.3 -0.3
v -0.1 1.3 -0.4
v -0.1 1.3 -0.8
v -0.1 1.3 -0.9
v -0.1 1.4 0.6
v -0.1 1.4 0.5
v -0.1 1.4 0.2
v -0.1 1.4 0.1
v -0.1 1.4 0
v -0.1 1.4 -0.1
v -0.1 1.4 -0.2
v -0.1 1.4 -0.3
v -0.1 1.4 -0.4
v -0.1 1.4 -0.6
v -0.1 1.4 -0.8
v -0.1 1.4 -0.9
v -0.1 1.5 1
v -0.1 1.5 0.7
v -0.1 1.5 0.6
v -0.1 1.5 0.5
v -0.1 1.5 0.3
v -0.1 1.5 0.2
v -0.1 1.5 0.1
v -0.1 1.5 -0.2
v -0.1 1.5 -0.3
v -0.1 1.5 -0.5
v -0.1 1.5 -0.6
v -0.1 1.5 -0.8
v -0.1 1.6 1
v -0.1 1.6 0.7
v -0.1 1.6 0.3
v -0.1 1.6 0.2
v -0.1 1.6 0.1
v -0.1 1.6 0
v -0.1 1.6 -0.2
v -0.1 1.6 -0.3
v -0.1 1.6 -0.5
v -0.1 1.6 -0.7
v -0.1 1.6 -0.9
v -0.1 1.7 0.2
v -0.1 1.7 0
v -0.1 1.7 -0.3
v -0.1 1.7 -0.7
v -0.1 1.7 -0.9
v 0 1.1 0.3
v 0 1.1 0.1
v 0 1.2 0.2
v 0 1.2 0.1
v 0 1.2 0
v 0 1.2 -0.2
v 0 1.2 -0.3
v 0 1.3 0.3
v 0 1.3 0.2
v 0 1.3 0.1
v 0 1.3 0
v 0 1.3 -0.2
v 0 1.3 -0.3
v 0 1.3 -0.4
v 0 1.3 -0.8
v 0 1.3 -0.9
v 0 1.4 0.6
v 0 1.4 0.5
v 0 1.4 0.2
v 0 1.4 0.1
v 0 1.4 0
v 0 1.4 -0.1
v 0 1.4 -0.2
v 0 1.4 -0.3
v 0 1.4 -0.4
v 0 1.4 -0.6
v 0 1.4 -0.8
v 0 1.4 -0.9
v 0 1.5 1
v 0 1.5 0.7
v 0 1.5 0.6
v 0 1.5 0.5
v 0 1.5 0.3
v 0 1.5 0.2
v 0 1.5 0.1
v 0 1.5 -0.2
v 0 1.5 -0.3
v 0 1.5 -0.5
v 0 1.5 -0.6
v 0 1.5 -0.8
v 0 1.6 1
v 0 1.6 0.7
v 0 1.6 0.3
v 0 1.6 0.2
v 0 1.6 0.1
v 0 1.6 0
v 0 1.6 -0.2
v 0 1.6 -0.3
v 0 1.6 -0.5
v 0 1.6 -0.7
v 0 1.6 -0.9
v 0 1.7 0.2
v 0 1.7 0
v 0 1.7 -0.3
v 0 1.7 -0.7
v 0 1.7 -0.9
v 0.1 1.2 0.2
v 0.1 1.2 0.1
v 0.1 1.2 -0.3
v 0.1 1.2 -0.4
v 0.1 1.3 0.1
v 0.1 1.3 0
v 0.1 1.3 -0.2
v 0.1 1.3 -0.3
v 0.1 1.3 -0.4
v 0.1 1.4 0.2
v 0.1 1.4 0.1
v 0.1 1.4 -0.1
v 0.1 1.4 -0.2
v 0.1 1.4 -0.8
v 0.1 1.4 -0.9
v 0.1 1.5 0.3
v 0.1 1.5 0.1
v 0.1 1.5 0
v 0.1 1.5 -0.1
v 0.1 1.5 -0.2
v 0.1 1.5 -0.3
v 0.1 1.5 -0.5
v 0.1 1.5 -0.8
v 0.1 1.6 0.3
v 0.1 1.6 0.1
v 0.1 1.6 -0.2
v 0.1 1.6 -0.5
v 0.1 1.6 -0.9
v -0.1 1.5 1
v -0.1 1.6 1
v 0 1.5 1
v 0 1.6 1
v -0.1 1.4 0.6
v -0.1 1.5 0.6
v 0 1.4 0.6
v 0 1.5 0.6
v -0.2 1.5 0.3
v -0.2 1.6 0.3
v -0.1 1.1 0.3
v -0.1 1.3 0.3
v -0.1 1.5 0.3
v -0.1 1.6 0.3
v 0 1.1 0.3
v 0 1.3 0.3
v 0 1.5 0.3
v 0 1.6 0.3
v 0.1 1.5 0.3
v 0.1 1.6 0.3
v -0.2 1.2 0.2
v -0.2 1.4 0.2
v -0.1 1.2 0.2
v -0.1 1.3 0.2
v -0.1 1.4 0.2
v -0.1 1.5 0.2
v -0.1 1.6 0.2
v -0.1 1.7 0.2
v 0 1.2 0.2
v 0 1.3 0.2
v 0 1.4 0.2
v 0 1.5 0.2
v 0 1.6 0.2
v 0 1.7 0.2
v 0.1 1.2 0.2
v 0.1 1.4 0.2
v -0.2 1.4 0.1
v -0.2 1.5 0.1
v -0.1 1.4 0.1
v -0.1 1.5 0.1
v 0 1.4 0.1
v 0 1.5 0.1
v 0.1 1.4 0.1
v 0.1 1.5 0.1
v -0.2 1.4 -0.1
v -0.2 1.5 -0.1
v -0.1 1.4 -0.1
v 0 1.4 -0.1
v 0.1 1.4 -0.1
v 0.1 1.5 -0.1
v -0.2 1.3 -0.2
v -0.2 1.4 -0.2
v -0.1 1.2 -0.2
v -0.1 1.3 -0.2
v -0.1 1.4 -0.2
v 0 1.2 -0.2
v 0 1.3 -0.2
v 0 1.4 -0.2
v 0.1 1.3 -0.2
v 0.1 1.4 -0.2
v -0.2 1.2 -0.3
v -0.2 1.3 -0.3
v -0.1 1.2 -0.3
v -0.1 1.3 -0.3
v 0 1.2 -0.3
v 0 1.3 -0.3
v 0.1 1.2 -0.3
v 0.1 1.3 -0.3
v -0.2 1.5 -0.5
v -0.2 1.6 -0.5
v -0.1 1.5 -0.5
v -0.1 1.6 -0.5
v 0 1.5 -0.5
v 0 1.6 -0.5
v 0.1 1.5 -0.5
v 0.1 1.6 -0.5
v -0.1 1.4 -0.6
v -0.1 1.5 -0.6
v 0 1.4 -0.6
v 0 1.5 -0.6
v -0.1 1.6 -0.7
v -0.1 1.7 -0.7
v 0 1.6 -0.7
v 0 1.7 -0.7
v -0.2 1.4 -0.8
v -0.2 1.5 -0.8
v -0.1 1.3 -0.8
v -0.1 1.4 -0.8
v -0.1 1.5 -0.8
v 0 1.3 -0.8
v 0 1.4 -0.8
v 0 1.5 -0.8
v 0.1 1.4 -0.8
v 0.1 1.5 -0.8
v -0.1 1.4 0.5
v -0.1 1.5 0.5
v 0 1.4 0.5
v 0 1.5 0.5
v -0.2 1.2 0.1
v -0.2 1.3 0.1
v -0.1 1.1 0.1
v -0.1 1.2 0.1
v -0.1 1.3 0.1
v 0 1.1 0.1
v 0 1.2 0.1
v 0 1.3 0.1
v 0.1 1.2 0.1
v 0.1 1.3 0.1
v -0.2 1.3 0
v -0.2 1.5 0
v -0.1 1.2 0
v -0.1 1.3 0
v -0.1 1.4 0
v -0.1 1.5 0
v 0 1.2 0
v 0 1.3 0
v 0 1.4 0
v 0 1.5 0
v 0.1 1.3 0
v 0.1 1.5 0
v -0.2 1.5 -0.2
v -0.2 1.6 -0.2
v -0.1 1.5 -0.2
v -0.1 1.6 -0.2
v 0 1.5 -0.2
v 0 1.6 -0.2
v 0.1 1.5 -0.2
v 0.1 1.6 -0.2
v -0.2 1.3 -0.3
v -0.2 1.5 -0.3
v -0.1 1.3 -0.3
v -0.1 1.4 -0.3
v -0.1 1.5 -0.3
v -0.1 1.6 -0.3
v -0.1 1.7 -0.3
v 0 1.3 -0.3
v 0 1.4 -0.3
v 0 1.5 -0.3
v 0 1.6 -0.3
v 0 1.7 -0.3
v 0.1 1.3 -0.3
v 0.1 1.5 -0.3
v -0.2 1.2 -0.4
v -0.2 1.3 -0.4
v -0.1 1.3 -0.4
v -0.1 1.4 -0.4
v 0 1.3 -0.4
v 0 1.4 -0.4
v 0.1 1.2 -0.4
v 0.1 1.3 -0.4
v -0.2 1.4 -0.9
v -0.2 1.6 -0.9
v -0.1 1.3 -0.9
v -0.1 1.4 -0.9
v -0.1 1.5 -0.9
v -0.1 1.6 -0.9
v -0.1 1.7 -0.9
v 0 1.3 -0.9
v 0 1.4 -0.9
v 0 1.5 -0.9
v 0 1.6 -0.9
v 0 1.7 -0.9
v 0.1 1.4 -0.9
v 0.1 1.6 -0.9
v -0.1 1.1 0.3
v 0 1.1 0.3
v -0.1 1.1 0.1
v 0 1.1 0.1
v -0.2 1.2 0.2
v -0.1 1.2 0.2
v 0 1.2 0.2
v 0.1 1.2 0.2
v -0.2 1.2 0.1
v -0.1 1.2 0.1
v 0 1.2 0.1
v 0.1 1.2 0.1
v -0.1 1.2 0
v 0 1.2 0
v -0.1 1.2 -0.2
v 0 1.2 -0.2
v -0.2 1.2 -0.3
v -0.1 1.2 -0.3
v 0 1.2 -0.3
v 0.1 1.2 -0.3
v -0.2 1.2 -0.4
v 0.1 1.2 -0.4
v -0.2 1.3 0.1
v -0.1 1.3 0.1
v 0 1.3 0.1
v 0.1 1.3 0.1
v -0.2 1.3 0
v -0.1 1.3 0
v 0 1.3 0
v 0.1 1.3 0
v -0.2 1.3 -0.2
v -0.1 1.3 -0.2
v 0 1.3 -0.2
v 0.1 1.3 -0.2
v -0.2 1.3 -0.3
v -0.1 1.3 -0.3
v 0 1.3 -0.3
v 0.1 1.3 -0.3
v -0.1 1.3 -0.8
v 0 1.3 -0.8
v -0.1 1.3 -0.9
v 0 1.3 -0.9
v -0.1 1.4 0.6
v 0 1.4 0.6
v -0.1 1.4 0.5
v 0 1.4 0.5
v -0.2 1.4 -0.1
v -0.1 1.4 -0.1
v 0 1.4 -0.1
v 0.1 1.4 -0.1
v -0.2 1.4 -0.2
v -0.1 1.4 -0.2
v 0 1.4 -0.2
v 0.1 1.4 -0.2
v -0.1 1.4 -0.6
v 0 1.4 -0.6
v -0.2 1.4 -0.8
v -0.1 1.4 -0.8
v 0 1.4 -0.8
v 0.1 1.4 -0.8
v -0.2 1.4 -0.9
v -0.1 1.4 -0.9
v 0 1.4 -0.9
v 0.1 1.4 -0.9
v -0.1 1.5 1
v 0 1.5 1
v -0.1 1.5 0.7
v 0 1.5 0.7
v -0.1 1.5 0.6
v 0 1.5 0.6
v -0.1 1.5 0.5
v 0 1.5 0.5
v -0.2 1.5 0.3
v -0.1 1.5 0.3
v 0 1.5 0.3
v 0.1 1.5 0.3
v -0.1 1.5 0.2
v 0 1.5 0.2
v -0.2 1.5 0.1
v -0.1 1.5 0.1
v 0 1.5 0.1
v 0.1 1.5 0.1
v -0.2 1.5 0
v -0.1 1.5 0
v 0 1.5 0
v 0.1 1.5 0
v -0.2 1.5 -0.1
v 0.1 1.5 -0.1
v -0.1 1.5 -0.3
v 0 1.5 -0.3
v -0.2 1.5 -0.5
v -0.1 1.5 -0.5
v 0 1.5 -0.5
v 0.1 1.5 -0.5
v -0.1 1.5 -0.6
v 0 1.5 -0.6
v -0.2 1.5 -0.8
v -0.1 1.5 -0.8
v 0 1.5 -0.8
v 0.1 1.5 -0.8
v -0.1 1.3 0.3
v 0 1.3 0.3
v -0.1 1.3 0.2
v 0 1.3 0.2
v -0.2 1.3 -0.3
v -0.1 1.3 -0.3
v 0 1.3 -0.3
v 0.1 1.3 -0.3
v -0.2 1.3 -0.4
v -0.1 1.3 -0.4
v 0 1.3 -0.4
v 0.1 1.3 -0.4
v -0.2 1.4 0.2
v -0.1 1.4 0.2
v 0 1.4 0.2
v 0.1 1.4 0.2
v -0.2 1.4 0.1
v -0.1 1.4 0.1
v 0 1.4 0.1
v 0.1 1.4 0.1
v -0.1 1.4 0
v 0 1.4 0
v -0.1 1.4 -0.1
v 0 1.4 -0.1
v -0.1 1.4 -0.3
v 0 1.4 -0.3
v -0.1 1.4 -0.4
v 0 1.4 -0.4
v -0.2 1.5 -0.2
v -0.1 1.5 -0.2
v 0 1.5 -0.2
v 0.1 1.5 -0.2
v -0.2 1.5 -0.3
v -0.1 1.5 -0.3
v 0 1.5 -0.3
v 0.1 1.5 -0.3
v -0.1 1.6 1
v 0 1.6 1
v -0.1 1.6 0.7
v 0 1.6 0.7
v -0.2 1.6 0.3
v -0.1 1.6 0.3
v 0 1.6 0.3
v 0.1 1.6 0.3
v -0.1 1.6 0.2
v 0 1.6 0.2
v -0.2 1.6 0.1
v -0.1 1.6 0.1
v 0 1.6 0.1
v 0.1 1.6 0.1
v -0.1 1.6 0
v 0 1.6 0
v -0.2 1.6 -0.2
v -0.1 1.6 -0.2
v 0 1.6 -0.2
v 0.1 1.6 -0.2
v -0.1 1.6 -0.3
v 0 1.6 -0.3
v -0.2 1.6 -0.5
v -0.1 1.6 -0.5
v 0 1.6 -0.5
v 0.1 1.6 -0.5
v -0.1 1.6 -0.7
v 0 1.6 -0.7
v -0.2 1.6 -0.9
v -0.1 1.6 -0.9
v 0 1.6 -0.9
v 0.1 1.6 -0.9
v -0.1 1.7 0.2
v 0 1.7 0.2
v -0.1 1.7 0
v 0 1.7 0
v -0.1 1.7 -0.3
v 0 1.7 -0.3
v -0.1 1.7 -0.7
v 0 1.7 -0.7
v -0.1 1.7 -0.9
v 0 1.7 -0.9

# faces
f 5/2/1 2/2/1 1/2/1
f 8/1/1 4/1/1 3/1/1
f 9/1/1 4/1/1 8/1/1
f 10/2/1 5/2/1 1/2/1
f 11/1/1 6/1/1 5/1/1
f 11/2/1 5/2/1 10/2/1
f 13/2/1 8/2/1 7/2/1
f 17/1/1 6/1/1 11/1/1
f 18/1/1 6/1/1 17/1/1
f 19/2/1 13/2/1 12/2/1
f 20/2/1 8/2/1 13/2/1
f 20/2/1 13/2/1 19/2/1
f 21/2/1 8/2/1 20/2/1
f 23/1/1 15/1/1 14/1/1
f 24/1/1 17/1/1 16/1/1
f 25/2/1 18/2/1 17/2/1
f 25/1/1 17/1/1 24/1/1
f 25/2/1 19/2/1 18/2/1
f 25/2/1 20/2/1 19/2/1
f 26/2/1 20/2/1 25/2/1
f 27/1/1 23/1/1 22/1/1
f 28/1/1 15/1/1 23/1/1
f 28/1/1 23/1/1 27/1/1
f 31/2/1 30/2/1 29/2/1
f 32/2/1 30/2/1 31/2/1
f 36/2/1 31/2/1 29/2/1
f 37/2/1 31/2/1 36/2/1
f 38/2/1 33/2/1 32/2/1
f 39/2/1 33/2/1 38/2/1
f 40/1/1 35/1/1 34/1/1
f 41/1/1 35/1/1 40/1/1
f 49/1/1 40/1/1 39/1/1
f 50/1/1 40/1/1 49/1/1
f 51/1/1 40/1/1 50/1/1
f 52/2/1 42/2/1 41/2/1
f 53/2/1 42/2/1 52/2/1
f 55/1/1 44/1/1 43/1/1
f 56/1/1 44/1/1 55/1/1
f 59/2/1 46/2/1 45/2/1
f 60/2/1 46/2/1 59/2/1
f 62/2/1 48/2/1 47/2/1
f 63/2/1 48/2/1 62/2/1
f 67/1/1 55/1/1 54/1/1
f 68/1/1 55/1/1 67/1/1
f 69/1/1 58/1/1 57/1/1
f 70/2/1 61/2/1 60/2/1
f 70/1/1 58/1/1 69/1/1
f 70/2/1 59/2/1 58/2/1
f 70/2/1 60/2/1 59/2/1
f 71/2/1 61/2/1 70/2/1
f 75/2/1 66/2/1 65/2/1
f 75/2/1 65/2/1 64/2/1
f 76/2/1 66/2/1 75/2/1
f 77/2/1 66/2/1 76/2/1
f 80/2/1 74/2/1 73/2/1
f 80/2/1 73/2/1 72/2/1
f 81/1/1 76/1/1 75/1/1
f 81/2/1 74/2/1 80/2/1
f 81/1/1 75/1/1 74/1/1
f 82/1/1 76/1/1 81/1/1
f 83/2/1 79/2/1 78/2/1
f 84/2/1 79/2/1 83/2/1
f 85/2/2 86/2/2 87/2/2
f 87/2/2 86/2/2 88/2/2
f 85/2/2 87/2/2 92/2/2
f 92/2/2 87/2/2 93/2/2
f 88/2/2 89/2/2 94/2/2
f 94/2/2 89/2/2 95/2/2
f 90/1/2 91/1/2 96/1/2
f 96/1/2 91/1/2 97/1/2
f 95/1/2 96/1/2 105/1/2
f 105/1/2 96/1/2 106/1/2
f 106/1/2 96/1/2 107/1/2
f 97/2/2 98/2/2 108/2/2
f 108/2/2 98/2/2 109/2/2
f 99/1/2 100/1/2 111/1/2
f 111/1/2 100/1/2 112/1/2
f 101/2/2 102/2/2 115/2/2
f 115/2/2 102/2/2 116/2/2
f 103/2/2 104/2/2 118/2/2
f 118/2/2 104/2/2 119/2/2
f 110/1/2 111/1/2 123/1/2
f 123/1/2 111/1/2 124/1/2
f 113/1/2 114/1/2 125/1/2
f 116/2/2 117/2/2 126/2/2
f 125/1/2 114/1/2 126/1/2
f 114/2/2 115/2/2 126/2/2
f 115/2/2 116/2/2 126/2/2
f 126/2/2 117/2/2 127/2/2
f 121/2/2 122/2/2 131/2/2
f 120/2/2 121/2/2 131/2/2
f 131/2/2 122/2/2 132/2/2
f 132/2/2 122/2/2 133/2/2
f 129/2/2 130/2/2 136/2/2
f 128/2/2 129/2/2 136/2/2
f 131/1/2 132/1/2 137/1/2
f 136/2/2 130/2/2 137/2/2
f 130/1/2 131/1/2 137/1/2
f 137/1/2 132/1/2 138/1/2
f 134/2/2 135/2/2 139/2/2
f 139/2/2 135/2/2 140/2/2
f 141/2/2 142/2/2 145/2/2
f 143/1/2 144/1/2 148/1/2
f 148/1/2 144/1/2 149/1/2
f 141/2/2 145/2/2 150/2/2
f 145/1/2 146/1/2 151/1/2
f 150/2/2 145/2/2 151/2/2
f 147/2/2 148/2/2 153/2/2
f 151/1/2 146/1/2 157/1/2
f 157/1/2 146/1/2 158/1/2
f 152/2/2 153/2/2 159/2/2
f 153/2/2 148/2/2 160/2/2
f 159/2/2 153/2/2 160/2/2
f 160/2/2 148/2/2 161/2/2
f 154/1/2 155/1/2 163/1/2
f 156/1/2 157/1/2 164/1/2
f 157/2/2 158/2/2 165/2/2
f 164/1/2 157/1/2 165/1/2
f 158/2/2 159/2/2 165/2/2
f 159/2/2 160/2/2 165/2/2
f 165/2/2 160/2/2 166/2/2
f 162/1/2 163/1/2 167/1/2
f 163/1/2 155/1/2 168/1/2
f 167/1/2 163/1/2 168/1/2
f 171/1/3 170/1/3 169/1/3
f 172/1/3 170/1/3 171/1/3
f 175/2/3 174/2/3 173/2/3
f 176/2/3 174/2/3 175/2/3
f 181/1/3 178/1/3 177/1/3
f 182/1/3 178/1/3 181/1/3
f 183/2/3 180/2/3 179/2/3
f 184/2/3 180/2/3 183/2/3
f 187/1/3 186/1/3 185/1/3
f 188/1/3 186/1/3 187/1/3
f 191/2/3 190/2/3 189/2/3
f 192/2/3 190/2/3 191/2/3
f 193/2/3 190/2/3 192/2/3
f 198/2/3 193/2/3 192/2/3
f 198/2/3 194/2/3 193/2/3
f 199/2/3 194/2/3 198/2/3
f 200/2/3 194/2/3 199/2/3
f 201/2/3 196/2/3 195/2/3
f 202/2/3 196/2/3 201/2/3
f 203/2/3 198/2/3 197/2/3
f 203/2/3 199/2/3 198/2/3
f 204/2/3 199/2/3 203/2/3
f 207/1/3 206/1/3 205/1/3
f 208/1/3 206/1/3 207/1/3
f 211/1/3 210/1/3 209/1/3
f 212/1/3 210/1/3 211/1/3
f 215/2/3 214/2/3 213/2/3
f 216/2/3 214/2/3 215/2/3
f 217/2/3 214/2/3 216/2/3
f 218/2/3 214/2/3 217/2/3
f 222/2/3 220/2/3 219/2/3
f 223/2/3 220/2/3 222/2/3
f 224/1/3 222/1/3 221/1/3
f 225/1/3 222/1/3 224/1/3
f 227/2/3 226/2/3 225/2/3
f 228/2/3 226/2/3 227/2/3
f 231/1/3 230/1/3 229/1/3
f 232/1/3 230/1/3 231/1/3
f 235/1/3 234/1/3 233/1/3
f 236/1/3 234/1/3 235/1/3
f 239/1/3 238/1/3 237/1/3
f 240/1/3 238/1/3 239/1/3
f 243/1/3 242/1/3 241/1/3
f 244/1/3 242/1/3 243/1/3
f 247/1/3 246/1/3 245/1/3
f 248/1/3 246/1/3 247/1/3
f 251/2/3 250/2/3 249/2/3
f 252/2/3 250/2/3 251/2/3
f 256/1/3 254/1/3 253/1/3
f 257/1/3 254/1/3 256/1/3
f 258/1/3 256/1/3 255/1/3
f 259/1/3 256/1/3 258/1/3
f 261/1/3 260/1/3 259/1/3
f 262/1/3 260/1/3 261/1/3
f 263/2/4 264/2/4 265/2/4
f 265/2/4 264/2/4 266/2/4
f 267/2/4 268/2/4 270/2/4
f 270/2/4 268/2/4 271/2/4
f 269/2/4 270/2/4 272/2/4
f 272/2/4 270/2/4 273/2/4
f 273/2/4 274/2/4 275/2/4
f 275/2/4 274/2/4 276/2/4
f 277/1/4 278/1/4 280/1/4
f 280/1/4 278/1/4 281/1/4
f 281/1/4 278/1/4 282/1/4
f 279/2/4 280/2/4 283/2/4
f 283/2/4 280/2/4 284/2/4
f 281/2/4 282/2/4 285/2/4
f 285/2/4 282/2/4 286/2/4
f 284/1/4 285/1/4 287/1/4
f 285/1/4 286/1/4 287/1/4
f 287/1/4 286/1/4 288/1/4
f 289/2/4 290/2/4 291/2/4
f 291/2/4 290/2/4 292/2/4
f 293/2/4 294/2/4 295/2/4
f 295/2/4 294/2/4 296/2/4
f 297/2/4 298/2/4 299/2/4
f 299/2/4 298/2/4 300/2/4
f 300/2/4 298/2/4 301/2/4
f 300/2/4 301/2/4 305/2/4
f 305/2/4 301/2/4 306/2/4
f 302/1/4 303/1/4 307/1/4
f 307/1/4 303/1/4 308/1/4
f 305/2/4 306/2/4 309/2/4
f 304/2/4 305/2/4 309/2/4
f 309/2/4 306/2/4 310/2/4
f 311/1/4 312/1/4 313/1/4
f 311/1/4 313/1/4 315/1/4
f 313/2/4 314/2/4 315/2/4
f 315/2/4 314/2/4 316/2/4
f 311/1/4 315/1/4 317/1/4
f 317/1/4 315/1/4 318/1/4
f 319/1/4 320/1/4 322/1/4
f 322/1/4 320/1/4 323/1/4
f 323/1/4 320/1/4 324/1/4
f 321/1/4 322/1/4 326/1/4
f 322/1/4 323/1/4 326/1/4
f 326/1/4 323/1/4 327/1/4
f 324/2/4 325/2/4 328/2/4
f 327/1/4 323/1/4 328/1/4
f 323/2/4 324/2/4 328/2/4
f 328/2/4 325/2/4 329/2/4
f 329/2/4 325/2/4 330/2/4
f 327/1/4 328/1/4 331/1/4
f 328/1/4 329/1/4 331/1/4
f 331/1/4 329/1/4 332/1/4
f 335/2/5 334/2/5 333/2/5
f 336/2/5 334/2/5 335/2/5
f 341/2/5 338/2/5 337/2/5
f 342/2/5 338/2/5 341/2/5
f 343/2/5 340/2/5 339/2/5
f 344/2/5 340/2/5 343/2/5
f 345/2/5 343/2/5 342/2/5
f 346/2/5 343/2/5 345/2/5
f 350/1/5 348/1/5 347/1/5
f 351/1/5 348/1/5 350/1/5
f 353/1/5 351/1/5 350/1/5
f 353/1/5 352/1/5 351/1/5
f 353/1/5 350/1/5 349/1/5
f 354/1/5 352/1/5 353/1/5
f 359/1/5 356/1/5 355/1/5
f 360/1/5 356/1/5 359/1/5
f 361/1/5 358/1/5 357/1/5
f 362/1/5 358/1/5 361/1/5
f 364/1/5 361/1/5 360/1/5
f 365/1/5 361/1/5 364/1/5
f 367/2/5 364/2/5 363/2/5
f 368/2/5 364/2/5 367/2/5
f 369/2/5 366/2/5 365/2/5
f 370/2/5 366/2/5 369/2/5
f 373/1/5 372/1/5 371/1/5
f 374/1/5 372/1/5 373/1/5
f 377/2/5 376/2/5 375/2/5
f 378/2/5 376/2/5 377/2/5
f 383/2/5 380/2/5 379/2/5
f 384/2/5 380/2/5 383/2/5
f 385/2/5 382/2/5 381/2/5
f 386/2/5 382/2/5 385/2/5
f 390/1/5 388/1/5 387/1/5
f 391/1/5 388/1/5 390/1/5
f 393/1/5 390/1/5 389/1/5
f 394/1/5 390/1/5 393/1/5
f 395/1/5 392/1/5 391/1/5
f 396/1/5 392/1/5 395/1/5
f 399/1/5 398/1/5 397/1/5
f 400/1/5 398/1/5 399/1/5
f 401/2/5 400/2/5 399/2/5
f 402/2/5 400/2/5 401/2/5
f 406/2/5 404/2/5 403/2/5
f 407/2/5 404/2/5 406/2/5
f 409/2/5 407/2/5 406/2/5
f 409/1/5 406/1/5 405/1/5
f 410/1/5 408/1/5 407/1/5
f 410/2/5 407/2/5 409/2/5
f 411/1/5 409/1/5 405/1/5
f 412/1/5 409/1/5 411/1/5
f 413/1/5 408/1/5 410/1/5
f 414/1/5 408/1/5 413/1/5
f 419/2/5 416/2/5 415/2/5
f 419/2/5 418/2/5 417/2/5
f 419/2/5 417/2/5 416/2/5
f 420/2/5 418/2/5 419/2/5
f 424/2/5 422/2/5 421/2/5
f 425/2/5 422/2/5 424/2/5
f 427/1/5 424/1/5 423/1/5
f 427/2/5 425/2/5 424/2/5
f 428/1/5 426/1/5 425/1/5
f 428/2/5 425/2/5 427/2/5
f 429/1/5 427/1/5 423/1/5
f 430/1/5 427/1/5 429/1/5
f 431/1/5 426/1/5 428/1/5
f 432/1/5 426/1/5 431/1/5
f 433/2/6 434/2/6 435/2/6
f 435/2/6 434/2/6 436/2/6
f 437/1/6 438/1/6 441/1/6
f 441/1/6 438/1/6 442/1/6
f 439/1/6 440/1/6 443/1/6
f 443/1/6 440/1/6 444/1/6
f 445/2/6 446/2/6 449/2/6
f 449/2/6 446/2/6 450/2/6
f 447/2/6 448/2/6 451/2/6
f 451/2/6 448/2/6 452/2/6
f 453/1/6 454/1/6 455/1/6
f 455/1/6 454/1/6 456/1/6
f 457/2/6 458/2/6 459/2/6
f 459/2/6 458/2/6 460/2/6
f 461/2/6 462/2/6 465/2/6
f 465/2/6 462/2/6 466/2/6
f 463/2/6 464/2/6 467/2/6
f 467/2/6 464/2/6 468/2/6
f 469/1/6 470/1/6 471/1/6
f 471/1/6 470/1/6 472/1/6
f 471/2/6 472/2/6 474/2/6
f 474/2/6 472/2/6 475/2/6
f 474/2/6 475/2/6 477/2/6
f 473/1/6 474/1/6 477/1/6
f 475/1/6 476/1/6 478/1/6
f 477/2/6 475/2/6 478/2/6
f 473/1/6 477/1/6 479/1/6
f 479/1/6 477/1/6 480/1/6
f 478/1/6 476/1/6 481/1/6
f 481/1/6 476/1/6 482/1/6
f 479/2/6 480/2/6 483/2/6
f 481/2/6 482/2/6 484/2/6
f 479/2/6 483/2/6 485/2/6
f 485/2/6 483/2/6 486/2/6
f 484/2/6 482/2/6 487/2/6
f 487/2/6 482/2/6 488/2/6
f 489/2/6 490/2/6 492/2/6
f 492/2/6 490/2/6 493/2/6
f 491/1/6 492/1/6 495/1/6
f 492/2/6 493/2/6 495/2/6
f 493/1/6 494/1/6 496/1/6
f 495/2/6 493/2/6 496/2/6
f 491/1/6 495/1/6 497/1/6
f 497/1/6 495/1/6 498/1/6
f 496/1/6 494/1/6 499/1/6
f 499/1/6 494/1/6 500/1/6
f 501/2/6 502/2/6 503/2/6
f 503/2/6 502/2/6 504/2/6
f 503/1/6 504/1/6 505/1/6
f 505/1/6 504/1/6 506/1/6
f 507/2/6 508/2/6 509/2/6
f 509/2/6 508/2/6 510/2/6
